<svg xmlns="http://www.w3.org/2000/svg"
     preserveAspectRatio="xMidYMid meet"
     height="24px"
     width="24px"
     viewBox="0 0 24 24"
     fill="#00875A"
     stroke="none"
     stroke-width="1"
     fill-rule="evenodd"
     data-testid="icon-CheckIcon"
     style="vertical-align:middle"
     aria-hidden="true"
>
    <path d="M9.3 16.7l-3.1-4.3A1 1 0 0 1 7.8 11l3.7 3.9c.6.6.6 1.6 0 2.1-.7.5-1.7.4-2.2-.3z"></path>
    <path d="M9.6 17c-.7-.6-.7-1.5-.2-2.2l7.3-8a1 1 0 0 1 1.6 1.3l-6.6 8.6c-.5.7-1.5.8-2.1.3z"></path>
    <path d="M9.7 13c.4.5.7.8 1.1.3.5-.5-.1 1.3-.1 1.3l-1.5-.5.5-1z"></path>
</svg>
