<svg xmlns="http://www.w3.org/2000/svg" width="100" height="100" viewBox="0 0 100 100">
  <path id="inbox_FILL1_wght400_GRAD0_opsz24" d="M131.111-740a10.7,10.7,0,0,1-7.847-3.264A10.7,10.7,0,0,1,120-751.111v-77.778a10.7,10.7,0,0,1,3.264-7.847A10.7,10.7,0,0,1,131.111-840h77.778a10.7,10.7,0,0,1,7.847,3.264A10.7,10.7,0,0,1,220-828.889v77.778a10.7,10.7,0,0,1-3.264,7.847A10.7,10.7,0,0,1,208.889-740ZM170-767.778a16.178,16.178,0,0,0,9.583-3.056,15.749,15.749,0,0,0,5.972-8.056h23.333v-50H131.111v50h23.333a15.749,15.749,0,0,0,5.972,8.056A16.178,16.178,0,0,0,170-767.778Z" transform="translate(-120 840)" fill="#eaeaea"/>
</svg>
