<svg xmlns="http://www.w3.org/2000/svg" xmlns:xlink="http://www.w3.org/1999/xlink" width="1920.006" height="1080" viewBox="0 0 1920.006 1080">
  <defs>
    <clipPath id="clip-path">
      <rect id="Rectangle_2" data-name="Rectangle 2" width="1920.006" height="1080" rx="10.25" fill="none"/>
    </clipPath>
  </defs>
  <g id="Group_3" data-name="Group 3" clip-path="url(#clip-path)">
    <g id="Group_1" data-name="Group 1" transform="translate(578.788 -266.396)" opacity="0.4" style="mix-blend-mode: overlay;isolation: isolate">
      <path id="Path_1" data-name="Path 1" d="M1272.176-93.13c-84.813,18.936-152.692,84.613-197.516,159.042-44.824,74.458-70.625,158.442-102,239.507-31.379,81.037-70.282,162.017-134.614,220.457C729.4,624.563,601.367,590.723,473.675,632.744c-120.655,39.7-222.631,139.648-256.241,263.221-17.02,62.558-17.821,128.264-27.833,192.338a678.345,678.345,0,0,1-91.764,249.433c-15.5,25.287-33.9,50.6-60.728,63.245" transform="translate(-37.11 93.13)" fill="none" stroke="#fff" stroke-width="0.05"/>
      <path id="Path_2" data-name="Path 2" d="M1279.421-85.65C1195.438-68.4,1127.673-5.5,1082.277,66.842c-39.074,62.272-64.5,132.1-91.564,202.35-4.319,11.327-8.667,22.626-13.13,33.9-18.278,46.311-38.817,92.765-65.047,135.043-19.566,31.551-42.335,60.785-69.71,85.957a269.447,269.447,0,0,1-61.786,42.821c-93.623,47.026-198.259,31.665-302.609,65.276q-15.447,4.977-30.464,11.184c-107.554,44.48-196.229,135.358-228.58,245.886-17.878,61.157-19.88,125.46-30.893,188.362a673.6,673.6,0,0,1-18.507,77.862,704.429,704.429,0,0,1-76.4,168.6c-15.675,25.2-34.154,50.487-60.814,63.417" transform="translate(-31.94 107.046)" fill="none" stroke="#fff" stroke-width="0.13"/>
      <path id="Path_3" data-name="Path 3" d="M1286.552-78.18C1203.4-62.619,1135.719-2.463,1089.808,67.79c-39.56,60.442-66.105,128.864-93.966,199.175-4.462,11.27-8.867,22.541-13.416,33.782C963.8,346.972,943.18,393.483,917.007,435.9c-19.537,31.637-42.192,61.042-69.452,86.358a272.272,272.272,0,0,1-61.586,43.25c-93.366,47.655-198.288,33.1-302.838,66.077-10.326,3.261-20.538,6.922-30.55,10.956C344.627,686.052,255.265,774.527,221.312,882.481c-18.736,59.755-21.911,122.628-33.954,184.357a669.741,669.741,0,0,1-19.737,76.546A733.384,733.384,0,0,1,89.3,1310.322c-15.847,25.115-34.383,50.373-60.871,63.56" transform="translate(-26.656 120.944)" fill="none" stroke="#fff" stroke-width="0.22"/>
      <path id="Path_4" data-name="Path 4" d="M1293.778-70.71C1211.453-56.865,1143.889.573,1097.406,68.709c-40.047,58.64-67.622,125.689-96.341,196-4.577,11.213-9.068,22.455-13.673,33.7-18.936,46.111-39.646,92.737-65.791,135.272-19.508,31.751-42.078,61.271-69.223,86.787a275.131,275.131,0,0,1-61.386,43.679C697.856,612.428,592.676,598.7,487.926,631.05c-10.355,3.175-20.6,6.779-30.664,10.727C348.907,684.312,258.859,770.355,223.3,875.792c-19.623,58.354-23.971,119.825-37.043,180.381a675.7,675.7,0,0,1-20.939,75.2c-19.451,57.095-46.74,112.9-80.265,165.25-16.019,25-34.612,50.258-60.957,63.7" transform="translate(-21.497 134.842)" fill="none" stroke="#fff" stroke-width="0.3"/>
      <path id="Path_5" data-name="Path 5" d="M1301.051-63.23c-81.495,12.157-148.945,66.821-196,132.869-40.562,56.809-69.109,122.485-98.744,192.853-4.691,11.156-9.268,22.4-13.959,33.582C973.1,342.1,952.274,388.782,926.158,431.46c-19.48,31.837-41.935,61.529-68.995,87.187a276.419,276.419,0,0,1-61.186,44.108c-92.88,48.943-198.345,35.985-303.3,67.707q-15.575,4.677-30.75,10.5c-108.755,41.563-199.489,125.2-236.647,228.065-20.481,56.952-26,117.022-40.1,176.405a675.219,675.219,0,0,1-22.169,73.886c-20.309,56.208-48.313,111.416-82.21,163.59-16.19,24.915-34.869,50.144-61.042,63.846" transform="translate(-16.356 148.758)" fill="none" stroke="#fff" stroke-width="0.39"/>
      <path id="Path_6" data-name="Path 6" d="M1308.239-55.76c-80.665,10.469-148.029,62.387-195.6,126.347-41.048,55.007-70.6,119.31-101.146,189.678-4.806,11.1-9.468,22.312-14.245,33.468-19.594,45.939-40.5,92.679-66.563,135.5-19.423,31.923-41.82,61.758-68.766,87.616a279.838,279.838,0,0,1-60.957,44.538C708.341,610.959,602.589,598.831,497.41,629.9q-15.618,4.591-30.865,10.269C357.39,680.754,265.969,761.992,227.209,862.309c-21.339,55.55-28.033,114.19-43.165,172.4a683.028,683.028,0,0,1-23.37,72.57c-21.167,55.322-49.915,109.957-84.155,161.932-16.362,24.829-35.1,50.058-61.1,63.989" transform="translate(-11.129 162.656)" fill="none" stroke="#fff" stroke-width="0.47"/>
      <path id="Path_7" data-name="Path 7" d="M1315.427-48.28c-79.807,8.753-147.086,57.953-195.227,119.8-41.534,53.176-72.113,116.107-103.521,186.5-4.949,11.041-9.668,22.226-14.5,33.382-19.909,45.853-40.9,92.679-66.935,135.644-19.394,32.037-41.677,62.015-68.508,88.017A280.708,280.708,0,0,1,805.977,560c-92.365,50.2-198.4,38.9-303.782,69.309q-15.7,4.505-30.95,10.04C361.688,678.967,269.581,757.8,229.191,855.543c-22.2,54.149-30.092,111.387-46.254,168.425a690.752,690.752,0,0,1-24.571,71.226c-22.054,54.406-51.489,108.5-86.1,160.272-16.562,24.743-35.327,49.944-61.185,64.16" transform="translate(-5.903 176.572)" fill="none" stroke="#fff" stroke-width="0.55"/>
      <path id="Path_8" data-name="Path 8" d="M1322.653-40.81c-78.978,7.065-146.17,53.491-194.855,113.246-42.02,51.374-73.6,112.931-105.923,183.356-5.063,11.013-9.869,22.14-14.789,33.267-20.224,45.739-41.334,92.651-67.307,135.758-19.365,32.123-41.563,62.244-68.279,88.417A282.224,282.224,0,0,1,810.943,558.6c-92.136,50.859-198.431,40.333-304.011,70.139q-15.747,4.419-31.065,9.811C365.911,677.2,273.117,753.629,231.125,848.826,208.041,901.573,199,957.409,181.811,1013.274a704.317,704.317,0,0,1-25.8,69.91C133.1,1136.7,102.919,1190.223,67.993,1241.8c-16.734,24.657-35.584,49.829-61.243,64.3" transform="translate(-0.743 190.47)" fill="none" stroke="#fff" stroke-width="0.64"/>
      <path id="Path_9" data-name="Path 9" d="M1329.869-33.33c-78.148,5.349-145.226,49.057-194.455,106.724-42.507,49.543-75.087,109.728-108.326,180.181-5.177,10.956-10.069,22.083-15.075,33.181-20.538,45.653-41.734,92.622-67.679,135.872-19.337,32.209-41.42,62.5-68.051,88.846a285.146,285.146,0,0,1-60.356,45.8c-91.878,51.489-198.46,41.792-304.268,70.94q-15.79,4.291-31.151,9.583C370.152,675.466,276.672,749.467,233.078,842.146,209.136,893.463,198.924,947.9,180.7,1002.619a721.109,721.109,0,0,1-27,68.594c-23.771,52.6-54.664,105.551-89.962,156.954-16.905,24.571-35.813,49.715-61.328,64.446" transform="translate(4.455 204.386)" fill="none" stroke="#fff" stroke-width="0.72"/>
      <path id="Path_10" data-name="Path 10" d="M1337.086-25.86C1259.767-22.2,1192.8,18.763,1143,74.314c-42.993,47.741-76.546,106.553-110.729,177.006-5.292,10.9-10.269,22-15.332,33.067-20.881,45.567-42.163,92.622-68.079,135.987-19.308,32.295-41.305,62.73-67.793,89.247a287.121,287.121,0,0,1-60.156,46.225c-91.621,52.118-198.488,43.25-304.5,71.741q-15.833,4.2-31.236,9.354c-110.758,36.7-204.924,108.3-250.12,198.4-24.8,49.915-36.214,102.948-55.436,156.468a727.346,727.346,0,0,1-28.233,67.25c-24.629,51.717-56.266,104.093-91.907,155.3-17.077,24.486-36.071,49.6-61.414,64.589" transform="translate(9.653 218.284)" fill="none" stroke="#fff" stroke-width="0.81"/>
      <path id="Path_11" data-name="Path 11" d="M1344.3-18.39c-76.489,1.974-143.367,40.19-193.711,93.623-43.479,45.911-78.034,103.349-113.1,173.86-5.406,10.841-10.441,21.911-15.618,32.981-21.2,45.453-42.592,92.593-68.451,136.1-19.28,32.409-41.162,62.988-67.564,89.676a289.769,289.769,0,0,1-59.927,46.626c-91.364,52.776-198.517,44.681-304.726,72.57q-15.876,4.119-31.351,9.125C378.692,671.9,283.667,740.98,237.013,828.653,211.24,877.11,198.769,928.77,178.488,981.145q-12.7,32.738-29.434,65.934c-25.487,50.831-57.839,102.634-93.852,153.636-17.249,24.371-36.3,49.486-61.472,64.761" transform="translate(14.852 232.182)" fill="none" stroke="#fff" stroke-width="0.89"/>
      <path id="Path_12" data-name="Path 12" d="M1351.471-10.91c-75.659.257-142.423,35.727-193.311,87.1-43.965,44.108-79.493,100.174-115.506,170.684-5.521,10.784-10.641,21.825-15.875,32.867-21.511,45.367-42.993,92.565-68.823,136.216-19.251,32.495-41.048,63.216-67.336,90.076a289.052,289.052,0,0,1-59.727,47.055c-91.02,53.605-198.545,46.139-304.955,73.371q-15.918,4.033-31.437,8.9C382.944,670.111,287.2,736.789,238.976,821.888c-26.66,47.055-40.3,97.313-61.586,148.516q-13.344,32.009-30.664,64.618C120.381,1084.937,87.314,1136.2,50.957,1187c-17.42,24.285-36.528,49.372-61.557,64.9" transform="translate(20.068 246.098)" fill="none" stroke="#fff" stroke-width="0.97"/>
      <path id="Path_13" data-name="Path 13" d="M1358.716-3.411c-74.83-1.43-141.479,31.294-192.939,80.551-44.48,42.278-80.98,96.97-117.909,167.509-5.635,10.755-10.841,21.768-16.162,32.781-21.825,45.281-43.422,92.536-69.195,136.33-19.194,32.581-40.9,63.474-67.078,90.505a292,292,0,0,1-59.526,47.484c-90.763,54.263-198.574,47.6-305.212,74.172q-15.961,3.947-31.551,8.639c-111.959,33.782-208.414,98.028-258.215,180.61-27.518,45.625-42.335,94.51-64.647,144.54q-14.031,31.279-31.866,63.274c-27.2,49.029-61.014,99.716-97.714,150.289-17.592,24.2-36.786,49.257-61.643,65.047" transform="translate(25.238 259.966)" fill="none" stroke="#fff" stroke-width="1.06"/>
      <path id="Path_14" data-name="Path 14" d="M1365.9,4.187c-74-3.147-140.564,26.831-192.538,74-44.967,40.476-82.439,93.795-120.283,164.363-5.75,10.7-11.042,21.682-16.448,32.667-22.169,45.2-43.822,92.536-69.567,136.445-19.165,32.7-40.79,63.7-66.849,90.906a293.2,293.2,0,0,1-59.326,47.913c-90.505,54.892-198.6,49.029-305.441,75-10.67,2.546-21.225,5.378-31.637,8.41-112.359,32.81-209.5,94.625-260.9,174.689-28.4,44.223-44.366,91.678-67.736,140.535q-14.674,30.55-33.1,61.958c-28.061,48.113-62.587,98.229-99.659,148.63-17.763,24.114-37.015,49.143-61.7,65.19" transform="translate(30.465 273.765)" fill="none" stroke="#fff" stroke-width="1.14"/>
      <path id="Path_15" data-name="Path 15" d="M1373.12,11.868c-73.171-4.834-139.534,22.512-192.167,67.479-45.367,38.731-83.9,90.62-122.686,161.188-5.835,10.641-11.242,21.6-16.705,32.581-22.483,45.081-44.251,92.508-69.967,136.559-19.137,32.781-40.647,63.932-66.62,91.335a295.648,295.648,0,0,1-59.1,48.313c-90.248,55.55-198.631,50.487-305.67,75.8-10.7,2.489-21.311,5.235-31.751,8.181C395.7,665.143,297.868,724.527,244.864,802.045c-29.263,42.821-46.426,88.875-70.8,136.559q-15.318,29.82-34.3,60.642c-28.919,47.226-64.189,96.77-101.6,146.971-17.935,24.028-37.243,49.029-61.786,65.362" transform="translate(35.663 287.451)" fill="none" stroke="#fff" stroke-width="1.22"/>
      <path id="Path_16" data-name="Path 16" d="M1380.365,19.667c-72.341-6.522-138.59,18.078-191.795,60.928-45.853,36.929-85.356,87.416-125.089,158.012-5.95,10.584-11.442,21.511-16.991,32.466-22.8,45-44.681,92.479-70.339,136.673-19.108,32.867-40.533,64.189-66.392,91.735a297.639,297.639,0,0,1-58.9,48.742c-89.962,56.208-198.66,51.946-305.927,76.6-10.727,2.431-21.368,5.092-31.837,7.952-113.16,30.836-211.7,87.817-266.31,162.818-30.149,41.391-48.456,86.072-73.857,132.583q-15.961,29.091-35.527,59.3c-29.806,46.34-65.762,95.311-103.521,145.312-18.107,23.942-37.5,48.914-61.843,65.5" transform="translate(40.832 301.05)" fill="none" stroke="#fff" stroke-width="1.31"/>
      <path id="Path_17" data-name="Path 17" d="M1387.534,27.579c-71.512-8.238-137.675,13.644-191.394,54.378-46.34,35.127-86.815,84.241-127.463,154.837-6.064,10.527-11.642,21.425-17.277,32.381-23.113,44.909-45.081,92.479-70.711,136.788-19.079,32.981-40.418,64.418-66.134,92.164a299.79,299.79,0,0,1-58.7,49.172c-89.7,56.838-198.688,53.376-306.156,77.4-10.755,2.374-21.425,4.949-31.923,7.723-113.561,29.863-212.791,84.441-269,156.868-31.007,39.989-50.487,83.24-76.947,128.578q-16.605,28.362-36.729,57.982c-30.664,45.424-67.364,93.852-105.466,143.653-18.278,23.856-37.73,48.828-61.929,65.648" transform="translate(46.049 314.505)" fill="none" stroke="#fff" stroke-width="1.39"/>
      <path id="Path_18" data-name="Path 18" d="M1394.779,35.616c-70.682-9.926-136.731,9.211-191.022,47.827-46.826,33.325-88.246,81.066-129.865,151.691-6.179,10.5-11.842,21.368-17.535,32.266-23.456,44.795-45.51,92.45-71.083,136.9-19.051,33.067-40.275,64.675-65.905,92.565a301.769,301.769,0,0,1-58.5,49.6c-89.447,57.5-198.688,55.036-306.385,78.234q-16.176,3.476-32.037,7.494c-113.961,28.891-213.877,81.037-271.688,150.947-31.894,38.559-52.547,80.436-80.007,124.6q-17.249,27.632-37.958,56.666c-31.522,44.538-68.937,92.393-107.411,141.994-18.45,23.742-37.958,48.714-62.015,65.791" transform="translate(51.218 327.836)" fill="none" stroke="#fff" stroke-width="1.48"/>
      <path id="Path_19" data-name="Path 19" d="M1401.967,43.807c-69.824-11.614-135.787,4.777-190.651,41.305-47.312,31.494-89.7,77.862-132.268,148.516-6.293,10.441-12.043,21.282-17.821,32.152-23.771,44.709-45.911,92.422-71.455,137.017-18.994,33.153-40.1,64.961-65.676,92.994a303.041,303.041,0,0,1-58.3,50.03c-89.218,58.125-198.717,56.494-306.614,79.035q-16.262,3.39-32.123,7.266c-114.362,27.918-214.964,77.633-274.376,145-32.752,37.157-54.578,77.633-83.068,120.626q-17.892,26.9-39.16,55.322C98.078,996.688,59.919,1043.971,21.1,1093.4c-18.622,23.656-38.216,48.6-62.072,65.963" transform="translate(56.445 341.041)" fill="none" stroke="#fff" stroke-width="1.56"/>
      <path id="Path_20" data-name="Path 20" d="M1409.183,52.154c-68.995-13.33-134.871.343-190.25,34.755-47.8,29.692-91.135,74.687-134.671,145.341-6.407,10.384-12.243,21.2-18.107,32.066-24.085,44.623-46.34,92.393-71.855,137.131-18.965,33.267-39.961,65.219-65.419,93.394a304.538,304.538,0,0,1-58.068,50.43c-88.961,58.783-198.746,57.953-306.871,79.836-10.87,2.2-21.625,4.52-32.238,7.037-114.762,26.946-216.08,74.229-277.065,139.076-33.61,35.727-56.637,74.8-86.129,116.65q-18.536,26.173-40.39,54.006c-33.239,42.735-72.113,89.447-111.272,138.676-18.793,23.57-38.445,48.485-62.158,66.105" transform="translate(61.643 354.062)" fill="none" stroke="#fff" stroke-width="1.64"/>
      <path id="Path_21" data-name="Path 21" d="M1416.409,60.675c-68.165-15.017-133.927-4.09-189.878,28.2-48.313,27.89-92.594,71.512-137.045,142.194-6.493,10.326-12.443,21.11-18.364,31.951-24.4,44.538-46.769,92.393-72.227,137.245-18.936,33.353-39.846,65.448-65.19,93.823a305.74,305.74,0,0,1-57.867,50.859c-88.7,59.412-198.774,59.412-307.1,80.665-10.9,2.145-21.682,4.377-32.323,6.808C421.251,658.4,319.247,703.252,256.631,765.582c-34.5,34.326-58.668,72-89.218,112.645-12.786,16.963-26.688,34.469-41.591,52.69-34.1,41.849-73.714,87.988-113.218,137.017-18.965,23.484-38.673,48.371-62.244,66.249" transform="translate(66.803 366.937)" fill="none" stroke="#fff" stroke-width="1.73"/>
      <path id="Path_22" data-name="Path 22" d="M1423.626,69.381c-67.335-16.734-133.012-8.524-189.506,21.682-48.8,26.088-94.024,68.337-139.448,139.019-6.608,10.3-12.615,21.053-18.65,31.866-24.743,44.423-47.169,92.365-72.6,137.36-18.908,33.439-39.7,65.705-64.961,94.224a307.686,307.686,0,0,1-57.667,51.288c-88.446,60.07-198.8,60.871-307.329,81.466q-16.391,3.089-32.438,6.579c-115.563,25-218.254,67.421-282.472,127.205-35.355,32.9-60.7,69.166-92.279,108.669q-19.823,24.672-42.793,51.345C88.529,961.019,48.2,1006.615,8.321,1055.414c-19.136,23.4-38.931,48.256-62.3,66.392" transform="translate(72.001 379.599)" fill="none" stroke="#fff" stroke-width="1.81"/>
      <path id="Path_23" data-name="Path 23" d="M1430.813,78.288c-66.506-18.421-132.068-12.958-189.106,15.132-49.286,24.257-95.454,65.162-141.851,135.844-6.722,10.24-12.815,20.967-18.936,31.751-25.058,44.337-47.6,92.336-72.971,137.474-18.879,33.525-39.589,65.934-64.7,94.653a310.633,310.633,0,0,1-57.467,51.717c-88.188,60.7-198.831,62.33-307.558,82.267-10.956,2-21.825,4.09-32.524,6.35-115.964,24.028-219.312,64.017-285.16,121.284-36.214,31.494-62.759,66.363-95.34,104.693q-20.467,23.942-44.023,50.03c-35.813,40.047-76.89,85.042-117.108,133.67-19.308,23.313-39.16,48.142-62.387,66.535" transform="translate(77.228 392.088)" fill="none" stroke="#fff" stroke-width="1.9"/>
      <path id="Path_24" data-name="Path 24" d="M1437.973,87.4c-65.677-20.109-131.153-17.392-188.734,8.581-49.772,22.455-96.884,61.986-144.225,132.7-6.836,10.183-13.015,20.881-19.194,31.665-25.372,44.252-48,92.336-73.342,137.589C993.627,431.57,973.031,464.122,948,492.984A311.227,311.227,0,0,1,890.764,545.1c-87.931,61.357-198.86,63.76-307.815,83.068-10.984,1.945-21.883,3.947-32.609,6.121-116.364,23.055-220.4,60.642-287.849,115.334-37.072,30.092-64.79,63.56-98.429,100.689-14.073,15.475-29.205,31.665-45.224,48.714C82.166,938.188,40.374,982.611-.216,1031.039c-19.48,23.227-39.417,48.027-62.444,66.706" transform="translate(82.483 404.346)" fill="none" stroke="#fff" stroke-width="1.98"/>
      <path id="Path_25" data-name="Path 25" d="M1445.256,96.735c-64.847-21.825-130.209-21.825-188.362,2.06-50.287,20.653-98.314,58.811-146.628,129.522-6.922,10.155-13.215,20.8-19.48,31.551-25.687,44.137-48.428,92.307-73.743,137.7-18.822,33.725-39.3,66.42-64.246,95.483-17.706,20.624-36.557,38.073-57.038,52.547-87.673,61.986-198.889,65.219-308.044,83.9q-16.519,2.832-32.724,5.892C438.227,657.473,333.5,692.628,264.453,744.8c-37.958,28.662-66.821,60.728-101.49,96.713-14.5,14.989-30.035,30.721-46.454,47.369C78.98,927.13,36.445,971.01-4.46,1019.237c-19.68,23.113-39.646,47.913-62.53,66.849" transform="translate(87.585 416.377)" fill="none" stroke="#fff" stroke-width="2.06"/>
      <path id="Path_26" data-name="Path 26" d="M1452.472,106.305c-64.017-23.513-129.293-26.259-187.962-4.491-50.773,18.822-99.716,55.636-149.031,126.347-7.037,10.1-13.416,20.738-19.766,31.465-26.03,44.051-48.857,92.279-74.115,137.818-18.765,33.811-39.188,66.678-64.017,95.883A315.144,315.144,0,0,1,900.744,546.3c-87.416,62.644-198.917,66.678-308.273,84.7-11.041,1.831-22,3.69-32.81,5.664C442.5,657.776,337.088,690.5,266.406,740.129c-38.817,27.26-68.88,57.925-104.55,92.736q-22.44,21.754-47.656,46.054C75.784,916.277,32.562,959.584-8.714,1007.611c-19.852,23.027-39.875,47.8-62.616,66.992" transform="translate(92.784 428.203)" fill="none" stroke="#fff" stroke-width="2.15"/>
      <path id="Path_27" data-name="Path 27" d="M1459.66,116.1c-63.188-25.2-128.378-30.693-187.59-11.041-51.26,17.02-101.146,52.49-151.4,123.2-7.151,10.04-13.616,20.653-20.023,31.351-26.345,43.965-49.257,92.25-74.487,137.932-18.736,33.925-39.045,66.906-63.76,96.312-17.506,20.824-36.214,38.588-56.637,53.405-87.159,63.274-198.946,68.136-308.531,85.5q-16.605,2.617-32.924,5.406c-117.565,20.138-223.66,50.459-295.944,97.542-39.675,25.859-70.911,55.121-107.611,88.76-15.389,14.016-31.694,28.862-48.885,44.738C72.588,905.647,28.623,948.411-13,996.238c-20.023,22.941-40.132,47.684-62.673,67.135" transform="translate(98.01 439.776)" fill="none" stroke="#fff" stroke-width="2.23"/>
      <path id="Path_28" data-name="Path 28" d="M1466.876,126.138c-62.358-26.917-127.434-35.127-187.218-17.563-51.746,15.218-102.548,49.315-153.808,120.025-7.237,9.983-13.816,20.567-20.309,31.265-26.66,43.88-49.687,92.25-74.859,138.046-18.707,34.011-38.931,67.164-63.531,96.713a321.867,321.867,0,0,1-56.409,53.834c-86.9,63.9-198.974,69.567-308.759,86.329-11.1,1.688-22.14,3.4-33.01,5.177-117.966,19.165-224.719,47.055-298.633,91.621-40.533,24.428-72.971,52.289-110.7,84.756-15.818,13.53-32.524,27.918-50.087,43.393C69.421,895.29,24.74,937.453-17.251,985.109c-20.195,22.855-40.361,47.6-62.759,67.307" transform="translate(103.208 451.134)" fill="none" stroke="#fff" stroke-width="2.32"/>
      <path id="Path_29" data-name="Path 29" d="M1474.1,136.4c-61.529-28.6-126.519-39.56-186.817-24.114-52.261,13.387-103.978,46.139-156.21,116.85-7.351,9.954-14.016,20.481-20.6,31.151-26.974,43.765-50.087,92.222-75.23,138.161-18.679,34.1-38.817,67.393-63.3,97.142-17.306,21.025-35.87,39.074-56.208,54.234-86.672,64.561-199,71.026-308.988,87.13-11.127,1.63-22.2,3.261-33.124,4.949C455.26,660.091,347.82,685.55,272.3,727.57c-41.391,23.027-75,49.486-113.761,80.78-16.247,13.044-33.382,27-51.317,42.078C66.235,885.1,20.811,926.687-21.5,974.143c-20.367,22.769-40.59,47.484-62.845,67.45" transform="translate(108.368 462.244)" fill="none" stroke="#fff" stroke-width="2.4"/>
      <path id="Path_30" data-name="Path 30" d="M1481.262,146.9c-60.671-30.321-125.6-44.023-186.446-30.664-52.747,11.585-105.38,42.993-158.613,113.7-7.466,9.9-14.217,20.424-20.853,31.065-27.318,43.679-50.516,92.193-75.631,138.275-18.65,34.211-38.674,67.65-63.045,97.542-17.22,21.139-35.7,39.331-56.008,54.664-86.415,65.19-199.032,72.484-309.217,87.931-11.184,1.573-22.254,3.118-33.21,4.72-118.767,17.22-226.864,40.275-304.011,79.75-42.249,21.625-77.032,46.654-116.822,76.8-16.677,12.557-34.211,26.059-52.518,40.762C63.039,875.206,16.9,916.254-25.778,963.509c-20.538,22.684-40.848,47.37-62.9,67.593" transform="translate(113.623 473.135)" fill="none" stroke="#fff" stroke-width="2.48"/>
      <path id="Path_31" data-name="Path 31" d="M1488.535,157.593c-59.841-32.009-124.659-48.456-186.045-37.186-53.233,9.754-106.781,39.846-160.987,110.529-7.552,9.869-14.417,20.338-21.139,30.95-27.632,43.594-50.945,92.193-76,138.39-18.622,34.3-38.559,67.879-62.816,97.971-17.134,21.225-35.527,39.589-55.808,55.093-86.157,65.82-199.06,73.915-309.475,88.76-11.213,1.516-22.312,2.975-33.3,4.491-119.167,16.247-227.951,36.9-306.728,73.8-43.107,20.195-79.092,43.851-119.911,72.8-17.106,12.071-35.041,25.115-53.748,39.417C59.872,865.474,12.989,905.95-30.032,952.976c-20.71,22.6-41.076,47.255-62.988,67.736" transform="translate(118.764 483.811)" fill="none" stroke="#fff" stroke-width="2.57"/>
      <path id="Path_32" data-name="Path 32" d="M1495.751,168.5c-59.011-33.7-123.744-52.89-185.673-43.737-53.748,7.952-108.183,36.671-163.39,107.353-7.666,9.811-14.588,20.252-21.425,30.836-27.947,43.479-51.345,92.164-76.375,138.5-18.564,34.383-38.416,68.108-62.587,98.372-17.02,21.339-35.355,39.846-55.608,55.522-85.9,66.449-199.117,75.373-309.7,89.561q-16.862,2.145-33.41,4.262c-119.568,15.275-229.009,33.5-309.417,67.879C234.2,735.845,197.04,758.1,155.191,785.874c-17.535,11.585-35.87,24.2-54.95,38.1C56.676,855.927,9.078,895.86-34.315,942.686-55.2,965.2-75.62,989.826-97.36,1010.593" transform="translate(123.963 494.273)" fill="none" stroke="#fff" stroke-width="2.65"/>
      <path id="Path_33" data-name="Path 33" d="M1502.892,179.616c-58.182-35.413-122.829-57.352-185.3-50.287-54.234,6.121-109.585,33.525-165.793,104.207-7.752,9.754-14.789,20.166-21.682,30.75-28.261,43.393-51.775,92.136-76.746,138.618-18.536,34.5-38.3,68.365-62.33,98.8-16.934,21.425-35.184,40.1-55.379,55.922-85.643,67.078-199.146,76.8-309.932,90.362-11.27,1.373-22.455,2.689-33.5,4.033-119.968,14.3-230.1,30.121-312.106,61.958C235.3,731.372,196.972,752.2,154.093,778.828c-17.964,11.1-36.729,23.256-56.18,36.786C53.491,846.678,5.149,886.01-38.559,932.664c-21.053,22.4-41.563,47.026-63.131,68.051" transform="translate(129.208 504.552)" fill="none" stroke="#fff" stroke-width="2.73"/>
      <path id="Path_34" data-name="Path 34" d="M1510.108,190.883c-57.353-37.1-121.885-61.786-184.9-56.809-54.749,4.319-110.986,30.378-168.167,101.032-7.866,9.726-14.989,20.081-21.969,30.636-28.6,43.308-52.175,92.136-77.118,138.761-18.507,34.583-38.159,68.594-62.1,99.2C979,525.244,960.84,544.066,940.674,560.056,855.26,627.792,741.5,638.318,630.513,651.219c-11.3,1.316-22.512,2.546-33.61,3.8-120.369,13.3-231.155,26.745-314.8,56.008-45.682,15.99-85.214,35.413-129.122,60.871-18.393,10.612-37.558,22.312-57.381,35.441C50.323,837.522,1.266,876.281-42.814,922.735c-21.225,22.312-41.792,46.912-63.216,68.194" transform="translate(134.406 514.652)" fill="none" stroke="#fff" stroke-width="2.82"/>
      <path id="Path_35" data-name="Path 35" d="M1517.41,202.343c-56.523-38.788-120.969-66.22-184.529-63.359-55.236,2.489-112.388,27.232-170.57,97.857-7.981,9.668-15.189,20.023-22.254,30.55-28.919,43.222-52.6,92.107-77.519,138.876-18.479,34.669-38.044,68.852-61.872,99.63-16.734,21.625-34.841,40.59-54.978,56.78-85.156,68.365-199.2,79.721-310.418,91.993-11.328,1.259-22.569,2.4-33.7,3.576-120.769,12.329-232.242,23.37-317.512,50.087-46.54,14.588-87.244,32.609-132.182,56.866-18.822,10.126-38.388,21.4-58.611,34.125C47.128,828.586-2.673,866.8-47.1,913.056c-21.4,22.226-42.049,46.8-63.274,68.337" transform="translate(139.518 524.589)" fill="none" stroke="#fff" stroke-width="2.9"/>
      <path id="Path_36" data-name="Path 36" d="M1524.627,213.949c-55.693-40.5-120.025-70.682-184.157-69.91-55.722.658-113.79,24.085-172.973,94.682a376.568,376.568,0,0,0-22.512,30.435c-29.234,43.107-53.033,92.079-77.891,138.99-18.45,34.755-37.9,69.08-61.643,100.031-16.648,21.711-34.64,40.848-54.778,57.21-84.9,68.995-199.232,81.152-310.647,92.794-11.356,1.173-22.655,2.288-33.811,3.347-121.17,11.356-233.329,19.966-320.2,44.137-47.4,13.187-89.275,29.777-135.243,52.89-19.251,9.64-39.217,20.452-59.812,32.81C43.932,819.74-6.556,857.384-51.35,903.438c-21.568,22.14-42.278,46.683-63.359,68.508" transform="translate(144.717 534.35)" fill="none" stroke="#fff" stroke-width="2.99"/>
      <path id="Path_37" data-name="Path 37" d="M1531.671,225.708c-54.864-42.192-119.11-75.116-183.757-76.46-56.237-1.144-115.163,20.939-175.347,91.535a362.082,362.082,0,0,0-22.8,30.35c-29.577,43.021-53.434,92.05-78.262,139.1-18.422,34.869-37.787,69.338-61.386,100.46-16.562,21.825-34.469,41.1-54.549,57.61C870.9,637.93,756.312,650.917,644.7,661.9c-11.385,1.116-22.712,2.145-33.9,3.118-121.57,10.384-234.387,16.591-322.89,38.216-48.256,11.785-91.335,26.974-138.3,48.914-19.68,9.153-40.075,19.508-61.014,31.494C40.707,811.1-10.524,848.2-55.633,894.057c-21.74,22.054-42.507,46.568-63.417,68.651" transform="translate(150.086 543.988)" fill="none" stroke="#fff" stroke-width="3.07"/>
      <path id="Path_38" data-name="Path 38" d="M1538.984,237.57c-54.034-43.908-118.195-79.578-183.385-82.982-56.723-2.975-116.564,17.792-177.75,88.36a358.632,358.632,0,0,0-23.084,30.235c-29.892,42.936-53.863,92.05-78.634,139.219-18.364,34.955-37.644,69.567-61.157,100.86-16.448,21.911-34.3,41.362-54.349,58.039-84.413,70.253-199.289,84.041-311.134,94.424-11.413,1.058-22.769,2-33.982,2.889-121.971,9.411-235.474,13.215-325.579,32.266a719.408,719.408,0,0,0-141.393,44.938c-20.109,8.639-40.9,18.564-62.244,30.149C37.55,802.542-14.4,839.042-59.878,884.723c-21.911,21.968-42.764,46.483-63.5,68.794" transform="translate(155.16 553.494)" fill="none" stroke="#fff" stroke-width="3.15"/>
      <path id="Path_39" data-name="Path 39" d="M1546.2,249.571c-53.2-45.6-117.251-84.012-183.013-89.533-57.209-4.806-117.937,14.674-180.152,85.185a348.342,348.342,0,0,0-23.341,30.149c-30.207,42.821-54.292,92.021-79.006,139.334-18.336,35.041-37.529,69.824-60.928,101.289-16.362,22.026-34.125,41.62-54.149,58.468-84.155,70.883-199.318,85.5-311.362,95.225-11.471,1-22.827,1.859-34.1,2.66-122.371,8.438-236.532,9.869-328.268,26.345-49.972,8.982-95.425,21.339-144.454,40.933-20.567,8.152-41.734,17.649-63.445,28.833-49.6,25.687-102.291,61.615-148.115,107.1-22.083,21.883-42.993,46.368-63.588,68.937" transform="translate(160.358 562.86)" fill="none" stroke="#fff" stroke-width="3.24"/>
      <path id="Path_40" data-name="Path 40" d="M1553.416,261.685C1501.041,214.4,1437.081,173.211,1370.8,165.6c-57.7-6.608-119.339,11.528-182.555,82.038a345.338,345.338,0,0,0-23.628,30.035c-30.521,42.735-54.692,91.993-79.407,139.448-18.307,35.155-37.415,70.053-60.671,101.69-16.276,22.111-33.954,41.877-53.949,58.9C886.669,649.222,771.248,664.64,659,673.736c-11.5.944-22.912,1.716-34.183,2.431-122.771,7.466-237.619,6.493-330.985,20.424-50.831,7.58-97.456,18.536-147.515,36.957a669.831,669.831,0,0,0-64.675,27.518C31.187,785.839-22.218,821.223-68.415,866.475c-22.255,21.768-43.222,46.254-63.646,69.08" transform="translate(165.556 572.142)" fill="none" stroke="#fff" stroke-width="3.32"/>
      <path id="Path_41" data-name="Path 41" d="M1560.633,273.874c-51.546-49-115.391-92.908-182.241-102.605-58.211-8.438-120.712,8.381-184.93,78.863a337.524,337.524,0,0,0-23.914,29.949c-30.865,42.65-55.121,91.993-79.779,139.563-18.278,35.241-37.329,70.253-60.442,102.119-16.219,22.169-33.782,42.106-53.748,59.326-83.669,72.141-199.375,88.36-311.82,96.856q-17.291,1.287-34.3,2.2c-123.172,6.493-238.678,3.118-333.674,14.474-51.689,6.179-99.487,15.7-150.6,32.981a638.555,638.555,0,0,0-65.877,26.173c-51.317,23.885-105.466,58.7-151.977,103.749-22.426,21.682-43.479,46.139-63.731,69.252" transform="translate(170.754 581.321)" fill="none" stroke="#fff" stroke-width="3.41"/>
      <path id="Path_42" data-name="Path 42" d="M1567.859,286.181c-50.687-50.688-114.476-97.37-181.869-109.156-58.7-10.269-122.085,5.263-187.332,75.688a334.468,334.468,0,0,0-24.171,29.835c-31.179,42.564-55.522,91.964-80.15,139.677-18.25,35.327-37.215,70.482-60.213,102.519-16.133,22.283-33.61,42.364-53.519,59.727-83.44,72.77-199.432,89.59-312.078,97.656q-17.334,1.158-34.383,1.945c-123.572,5.521-239.765-.257-336.363,8.553-52.547,4.777-101.547,12.9-153.665,28.977a617.851,617.851,0,0,0-67.107,24.857C24.834,769.429-30.03,803.669-76.913,848.55c-22.6,21.6-43.708,46.025-63.817,69.4" transform="translate(175.914 590.411)" fill="none" stroke="#fff" stroke-width="3.49"/>
      <path id="Path_43" data-name="Path 43" d="M1575.018,298.559c-49.858-52.4-113.532-101.833-181.468-115.706-59.183-12.1-123.458,2.145-189.735,72.542a334.958,334.958,0,0,0-24.457,29.72c-31.494,42.449-55.951,91.936-80.522,139.791-18.221,35.441-37.072,70.74-59.955,102.948-16.019,22.369-33.439,42.621-53.319,60.156-83.182,73.4-199.461,91.049-312.306,98.457q-17.377,1.073-34.5,1.716c-123.973,4.548-240.852-3.633-339.052,2.6-53.405,3.4-103.578,10.1-156.725,25a592.614,592.614,0,0,0-68.308,23.542C21.638,761.412-33.969,795.079-81.2,839.76c-22.8,21.511-43.937,45.911-63.874,69.538" transform="translate(181.169 599.401)" fill="none" stroke="#fff" stroke-width="3.57"/>
      <path id="Path_44" data-name="Path 44" d="M1582.263,311c-49.029-54.092-112.617-106.267-181.1-122.228-59.669-13.9-124.86-.973-192.109,69.366a328.719,328.719,0,0,0-24.743,29.635c-31.808,42.364-56.38,91.907-80.894,139.906-18.193,35.527-36.957,70.968-59.727,103.349-15.933,22.483-33.267,42.878-53.119,60.585-82.925,74.029-199.489,92.479-312.535,99.258-11.614.658-23.17,1.144-34.583,1.487-124.373,3.576-241.91-6.98-341.741-3.318-54.292,2-105.609,7.266-159.815,21.025a578.258,578.258,0,0,0-69.538,22.2c-53.891,21.2-110.214,54.292-157.812,98.772-22.969,21.425-44.194,45.8-63.96,69.681" transform="translate(186.339 608.36)" fill="none" stroke="#fff" stroke-width="3.66"/>
      <path id="Path_45" data-name="Path 45" d="M1589.479,323.517c-48.2-55.779-111.673-110.729-180.725-128.778-60.156-15.733-126.233-4.09-194.512,66.191a320.642,320.642,0,0,0-25,29.52c-32.152,42.278-56.78,91.907-81.295,140.02-18.135,35.613-36.814,71.226-59.5,103.778-15.818,22.569-33.1,43.107-52.919,61.014C912.834,669.92,796.013,689.2,682.767,695.35c-11.642.6-23.227,1-34.669,1.259-124.774,2.6-243-10.355-344.458-9.268-55.15.6-107.668,4.462-162.875,17.048a563.235,563.235,0,0,0-70.74,20.881C15.247,745.551-41.791,778.1-89.733,822.383c-23.141,21.339-44.423,45.682-64.017,69.853" transform="translate(191.537 617.207)" fill="none" stroke="#fff" stroke-width="3.74"/>
      <path id="Path_46" data-name="Path 46" d="M1596.705,336.134c-47.369-57.5-110.7-115.306-180.324-135.329-60.613-17.678-127.606-7.208-196.915,63.045a315.017,315.017,0,0,0-25.287,29.434c-32.466,42.163-57.209,91.878-81.667,140.135-18.107,35.727-36.7,71.455-59.269,104.178-15.733,22.684-32.924,43.365-52.69,61.414C918.115,674.3,801.008,694.408,687.533,699.9q-17.506.772-34.783,1.03C527.575,702.56,408.665,687.2,305.6,685.741c-56.008-.8-109.7,1.659-165.936,13.044A549.324,549.324,0,0,0,67.7,718.35C12.061,737.744-45.692,769.724-93.977,813.8c-23.313,21.253-44.652,45.567-64.1,70" transform="translate(196.697 625.958)" fill="none" stroke="#fff" stroke-width="3.83"/>
      <path id="Path_47" data-name="Path 47" d="M1603.865,348.769c-46.54-59.183-109.785-119.739-179.952-141.851-61.128-19.508-128.979-10.326-199.289,59.87a312.288,312.288,0,0,0-25.573,29.32c-32.781,42.078-57.61,91.85-82.038,140.249-18.078,35.813-36.585,71.712-59.011,104.607-15.647,22.769-32.752,43.622-52.49,61.843-82.21,75.917-199.575,96.827-313.25,101.69q-17.549.686-34.869.8c-125.575.658-245.171-17.077-349.836-21.11-56.866-2.2-111.759-1.173-169,9.068a540.192,540.192,0,0,0-73.171,18.221C8.894,729.956-49.6,761.364-98.231,805.272c-23.484,21.139-44.909,45.453-64.189,70.139" transform="translate(201.952 634.718)" fill="none" stroke="#fff" stroke-width="3.91"/>
      <path id="Path_48" data-name="Path 48" d="M1611.081,361.459c-45.71-60.871-108.841-124.2-179.552-148.4-61.615-21.31-130.352-13.444-201.692,56.695a309.817,309.817,0,0,0-25.83,29.234c-33.1,41.992-58.039,91.85-82.41,140.363-18.05,35.9-36.442,71.941-58.783,105.008-15.532,22.884-32.638,43.851-52.289,62.272-82.124,76.4-199.6,98.286-313.479,102.519-11.728.4-23.427.6-34.984.572-125.975-.315-246.258-20.452-352.525-27.06-57.724-3.576-113.79-3.976-172.086,5.092a534.374,534.374,0,0,0-74.4,16.905C5.7,722.251-53.514,753.087-102.514,796.795c-23.656,21.053-45.138,45.339-64.246,70.282" transform="translate(207.15 643.396)" fill="none" stroke="#fff" stroke-width="3.99"/>
      <path id="Path_49" data-name="Path 49" d="M1618.354,374.217c-44.881-62.587-107.926-128.635-179.18-154.952-62.1-23.141-131.7-16.562-204.095,53.548a303.937,303.937,0,0,0-26.116,29.12c-33.439,41.906-58.468,91.821-82.811,140.478-18.021,35.985-36.328,72.2-58.554,105.437-15.447,22.97-32.466,44.08-52.089,62.7-81.867,77.032-199.632,99.745-313.737,103.32q-17.678.515-35.069.343c-126.376-1.287-247.345-23.6-355.214-32.981-58.611-4.863-115.821-6.779-175.147,1.087a523.976,523.976,0,0,0-75.6,15.59C2.531,714.614-57.425,744.877-106.768,788.357c-23.828,20.967-45.4,45.253-64.332,70.453" transform="translate(212.291 652.034)" fill="none" stroke="#fff" stroke-width="4.08"/>
      <path id="Path_50" data-name="Path 50" d="M1625.609,386.981c-44.051-64.275-106.982-133.069-178.808-161.474-62.587-24.943-133.069-19.651-206.5,50.373a302.459,302.459,0,0,0-26.4,29.034c-33.754,41.791-58.869,91.793-83.182,140.592-17.992,36.1-36.185,72.427-58.3,105.837-15.361,23.084-32.295,44.337-51.889,63.1-81.609,77.662-199.661,101.175-313.965,104.121q-17.721.429-35.184.115c-126.776-2.26-248.432-26.974-357.931-38.931-59.469-6.264-117.88-9.611-178.207-2.889a520.882,520.882,0,0,0-76.832,14.245C-.655,706.9-61.326,736.617-111.012,779.9c-24,20.881-45.625,45.138-64.418,70.6" transform="translate(217.422 660.638)" fill="none" stroke="#fff" stroke-width="4.16"/>
      <path id="Path_51" data-name="Path 51" d="M1632.711,399.83c-43.222-65.991-106.038-137.5-178.408-168.024-63.073-26.774-134.442-22.769-208.872,47.2a296.756,296.756,0,0,0-26.66,28.919c-34.068,41.706-59.3,91.764-83.554,140.707-17.935,36.185-36.071,72.656-58.068,106.267-15.246,23.17-32.123,44.595-51.66,63.531C944.138,696.747,825.8,721.061,711.3,723.378q-17.764.3-35.27-.115c-127.177-3.232-249.519-30.378-360.62-44.852C255.079,670.746,195.5,666,134.11,671.547a518.011,518.011,0,0,0-78.034,12.929c-59.927,14.9-121.341,44.051-171.371,87.13a413.179,413.179,0,0,0-64.475,70.74" transform="translate(222.734 669.185)" fill="none" stroke="#fff" stroke-width="4.24"/>
      <path id="Path_52" data-name="Path 52" d="M1639.928,412.7c-42.392-67.679-105.122-141.965-178.036-174.575-63.56-28.576-135.815-25.859-211.275,44.051a298.724,298.724,0,0,0-26.946,28.834c-34.383,41.62-59.7,91.764-83.926,140.821-17.906,36.271-35.927,72.913-57.839,106.667-15.161,23.284-31.951,44.852-51.46,63.96C949.324,701.4,830.729,726.547,716.024,728.206c-11.871.143-23.685,0-35.355-.343-127.577-4.234-250.606-33.754-363.309-50.8-61.214-9.1-121.942-15.246-184.358-10.841a512.288,512.288,0,0,0-79.235,11.614C-7.018,691.85-69.148,720.4-119.549,763.3a389.324,389.324,0,0,0-64.561,70.882" transform="translate(227.932 677.687)" fill="none" stroke="#fff" stroke-width="4.33"/>
      <path id="Path_53" data-name="Path 53" d="M1647.172,425.614c-41.534-69.366-104.178-146.4-177.664-181.125-64.046-30.407-137.16-28.977-213.677,40.876a300.394,300.394,0,0,0-27.232,28.719c-34.726,41.505-60.127,91.735-84.3,140.935-17.878,36.385-35.813,73.142-57.581,107.1-15.075,23.37-31.751,45.11-51.26,64.389C954.595,706.083,835.714,732.028,720.78,733.057q-17.849.129-35.47-.572c-127.978-5.206-251.693-37.129-366-56.723-62.072-10.5-124-18.05-187.418-14.846a508.61,508.61,0,0,0-80.465,10.269c-61.643,13.1-124.516,41.1-175.261,83.812a367.4,367.4,0,0,0-64.618,71.054" transform="translate(233.102 686.137)" fill="none" stroke="#fff" stroke-width="4.41"/>
      <path id="Path_54" data-name="Path 54" d="M1654.313,438.545c-40.7-71.083-103.263-150.833-177.264-187.647-64.532-32.209-138.533-32.066-216.052,37.7a288.782,288.782,0,0,0-27.489,28.633c-35.041,41.42-60.556,91.707-84.7,141.05-17.849,36.471-35.67,73.4-57.353,107.5-14.96,23.484-31.58,45.367-51.059,64.818C959.79,710.834,840.623,737.579,725.489,737.951q-17.892,0-35.556-.8c-128.378-6.179-252.78-40.5-368.686-62.644-62.93-11.9-126.032-20.853-190.479-18.822A509.047,509.047,0,0,0,49.1,664.637c-62.5,12.214-126.09,39.646-177.178,82.153a348.8,348.8,0,0,0-64.7,71.2" transform="translate(238.348 694.602)" fill="none" stroke="#fff" stroke-width="4.5"/>
      <path id="Path_55" data-name="Path 55" d="M1661.615,451.526c-39.875-72.77-102.319-155.3-176.892-194.2-65.047-34.04-139.906-35.155-218.454,34.555a290.489,290.489,0,0,0-27.775,28.519c-35.355,41.334-60.957,91.707-85.07,141.164-17.821,36.557-35.556,73.629-57.124,107.926-14.875,23.57-31.408,45.625-50.831,65.219-80.351,80.865-199.8,108.441-315.138,108.183-11.957-.029-23.856-.4-35.67-1.03-128.779-7.151-253.867-43.908-371.4-68.594-63.817-13.3-128.092-23.685-193.568-22.8a507.751,507.751,0,0,0-82.9,7.637C-16.6,669.408-80.9,696.3-132.33,738.6a332.051,332.051,0,0,0-64.79,71.34" transform="translate(243.46 702.99)" fill="none" stroke="#fff" stroke-width="4.58"/>
      <path id="Path_56" data-name="Path 56" d="M1668.831,464.54c-39.045-74.458-101.375-159.729-176.52-200.748-65.533-35.842-141.25-38.245-220.857,31.379a292.208,292.208,0,0,0-28.061,28.4c-35.67,41.248-61.386,91.678-85.442,141.279-17.792,36.671-35.413,73.886-56.895,108.326-14.789,23.656-31.236,45.853-50.63,65.648C970.3,720.324,850.593,748.7,735.03,747.813c-11.985-.114-23.942-.543-35.756-1.287C570.1,738.4,444.32,699.242,325.182,672.011c-64.675-14.7-130.123-26.488-196.629-26.8a509.7,509.7,0,0,0-84.1,6.293c-64.246,10.412-129.265,36.7-181.068,78.835a316.838,316.838,0,0,0-64.847,71.483" transform="translate(248.658 711.371)" fill="none" stroke="#fff" stroke-width="4.66"/>
      <path id="Path_57" data-name="Path 57" d="M1676.019,477.564C1637.8,401.39,1575.559,313.4,1499.9,270.294c-66.02-37.672-142.623-41.334-223.26,28.2a284.57,284.57,0,0,0-28.319,28.319c-36.013,41.134-61.786,91.65-85.814,141.393-17.764,36.757-35.3,74.115-56.637,108.755-14.674,23.771-31.065,46.111-50.43,66.077C975.575,725.2,855.578,754.372,739.815,752.827c-12.014-.172-24-.687-35.87-1.516-129.579-9.1-256.041-50.659-376.781-80.465-65.533-16.1-132.154-29.291-199.69-30.779a509.912,509.912,0,0,0-85.328,4.977c-65.1,9.525-130.867,35.241-183.013,77.176A303.8,303.8,0,0,0-205.8,793.846" transform="translate(253.885 719.715)" fill="none" stroke="#fff" stroke-width="4.75"/>
      <path id="Path_58" data-name="Path 58" d="M1683.217,490.605c-37.386-77.862-99.516-168.625-175.747-213.82-66.506-39.475-143.853-44.28-225.634,25.029a289.492,289.492,0,0,0-28.6,28.2c-36.328,41.048-62.215,91.621-86.186,141.508-17.706,36.843-35.155,74.372-56.409,109.156-14.588,23.856-30.893,46.368-50.23,66.506C980.8,729.97,860.516,759.947,744.553,757.8c-12.043-.229-24.057-.83-35.956-1.745-129.98-10.069-257.128-54.034-379.47-86.386-66.42-17.506-134.213-32.123-202.779-34.755a513.133,513.133,0,0,0-86.529,3.661c-65.962,8.61-132.44,33.782-184.929,75.488a290.938,290.938,0,0,0-65.019,71.8" transform="translate(259.073 728.07)" fill="none" stroke="#fff" stroke-width="4.83"/>
      <path id="Path_59" data-name="Path 59" d="M1690.49,503.712c-36.557-79.578-98.6-173.059-175.375-220.371-66.992-41.305-145.283-47.427-228.037,21.883a282.461,282.461,0,0,0-28.891,28.118c-36.643,40.962-62.644,91.621-86.586,141.622-17.678,36.957-35.041,74.6-56.18,109.585-14.5,23.971-30.721,46.626-50.03,66.906-79.378,83.411-199.918,114.219-316.082,111.416-12.071-.286-24.114-.944-36.042-1.974-130.38-11.041-258.244-57.41-382.188-92.307-67.278-18.908-136.244-34.926-205.84-38.731a517.582,517.582,0,0,0-87.759,2.317C-29.34,639.9-96.561,664.5-149.394,706a279.476,279.476,0,0,0-65.076,71.941" transform="translate(264.214 736.332)" fill="none" stroke="#fff" stroke-width="4.92"/>
      <path id="Path_60" data-name="Path 60" d="M1697.678,516.821c-66.906-152.177-225.72-356.844-405.415-208.185C1239,352.687,1205.906,415.989,1176.156,478.4S1117.8,605.41,1070.4,655.754c-87.359,92.822-225.577,121.685-352.5,110.014-130.781-12.014-259.33-60.814-384.877-98.257-96.713-28.834-197.458-51.832-297.861-41.734C-65.231,635.9-166.206,683.9-218.81,770.03" transform="translate(269.441 744.59)" fill="none" stroke="#fff" stroke-width="5"/>
    </g>
    <g id="Group_2" data-name="Group 2" transform="translate(-212.497 -591.345)" opacity="0.5" style="mix-blend-mode: overlay;isolation: isolate">
      <path id="Path_61" data-name="Path 61" d="M1465.954-19.19c-12.5,66.506-61.815,121.084-118.567,157.955S1225.9,197.948,1163.66,224.522,1039.4,283.505,995.607,335.137c-73.943,87.159-44.223,185.931-73.543,286.448C894.346,716.552,819.259,798.59,723.948,828c-48.256,14.9-99.373,17.277-148.973,26.745a527.789,527.789,0,0,0-191.737,78.034c-19.28,12.729-38.5,27.718-47.627,48.943" transform="translate(-293.454 555.643)" fill="none" stroke="#fff" stroke-width="0.05"/>
      <path id="Path_62" data-name="Path 62" d="M1454.436-22.6c-9.211,56.122-44.509,103.892-88.818,140.192-7.695,6.322-15.7,12.3-23.914,17.878-55.293,37.73-119.968,61.271-182.384,88.1-44.68,19.222-89.39,41.162-127.262,71.2a288.482,288.482,0,0,0-41.706,40.19c-44.194,52.432-51.374,109.3-55.979,168.053-3.089,39.417-5.034,79.721-16.3,120.283A318.609,318.609,0,0,1,867.381,727.13C831.6,775.672,782.454,814.288,725.245,833c-47.312,15.475-97.685,17.935-146.571,27.661a531.755,531.755,0,0,0-189.449,78.12c-19.079,12.643-38.13,27.489-47.255,48.485" transform="translate(-300.129 549.299)" fill="none" stroke="#fff" stroke-width="0.14"/>
      <path id="Path_63" data-name="Path 63" d="M1443.014-26.01c-7.752,55.608-41.019,103.149-83.755,139.963-7.409,6.436-15.16,12.529-23.141,18.221-53.806,38.588-118.481,63.388-181.068,90.448-44.91,19.451-89.962,41.362-128.035,71.655a286.232,286.232,0,0,0-41.849,40.561c-44.109,52.719-51.374,110.128-55.722,169.254-2.918,39.7-4.577,80.208-15.3,121a324.559,324.559,0,0,1-48.8,104.636c-34.64,49.057-82.382,88.818-138.733,108.3-46.34,16.019-96.026,18.622-144.2,28.548a535.124,535.124,0,0,0-187.161,78.234c-18.879,12.558-37.758,27.289-46.912,48" transform="translate(-306.928 542.955)" fill="none" stroke="#fff" stroke-width="0.23"/>
      <path id="Path_64" data-name="Path 64" d="M1431.525-29.42c-6.293,55.093-37.615,102.319-78.663,139.763q-10.727,9.783-22.4,18.564c-52.318,39.446-116.993,65.476-179.724,92.822-45.11,19.709-90.534,41.591-128.836,72.112a285.286,285.286,0,0,0-41.992,40.9c-44.051,53-51.374,110.929-55.465,170.456-2.746,39.961-4.09,80.694-14.3,121.684a330.176,330.176,0,0,1-46.912,105.437C829.71,781.9,783.428,822.8,727.906,843.081c-45.367,16.591-94.338,19.28-141.794,29.434A538.888,538.888,0,0,0,401.24,950.864c-18.679,12.472-37.358,27.06-46.54,47.512" transform="translate(-313.632 536.61)" fill="none" stroke="#fff" stroke-width="0.32"/>
      <path id="Path_65" data-name="Path 65" d="M1419.988-32.83c-4.834,54.549-34.154,101.547-73.571,139.534-6.865,6.608-14.1,12.958-21.625,18.908-50.831,40.3-115.477,67.593-178.379,95.168-45.339,19.938-91.106,41.792-129.608,72.542A281.782,281.782,0,0,0,974.67,334.6C930.7,387.888,923.3,446.356,919.463,506.255c-2.574,40.247-3.6,81.209-13.3,122.371a337.984,337.984,0,0,1-45.024,106.267C828.757,784.979,783.9,827.028,729.213,848.11c-44.395,17.134-92.679,19.938-139.391,30.35a542.828,542.828,0,0,0-182.584,78.463c-18.507,12.386-36.986,26.831-46.168,47.055" transform="translate(-320.316 530.266)" fill="none" stroke="#fff" stroke-width="0.41"/>
      <path id="Path_66" data-name="Path 66" d="M1408.556-36.24c-3.375,54.034-30.693,100.8-68.48,139.305a278.283,278.283,0,0,1-20.881,19.251c-49.343,41.162-113.99,69.681-177.063,97.542-45.567,20.195-91.707,42.02-130.409,73a282.324,282.324,0,0,0-42.278,41.62c-43.908,53.548-51.374,112.588-54.95,172.858-2.374,40.5-3.118,81.7-12.3,123.058a344.058,344.058,0,0,1-43.136,107.068c-31.265,50.6-74.63,93.766-128.521,115.678-43.422,17.649-90.992,20.624-136.988,31.236a547.467,547.467,0,0,0-180.3,78.577c-18.307,12.271-36.614,26.6-45.825,46.568" transform="translate(-327.077 523.922)" fill="none" stroke="#fff" stroke-width="0.5"/>
      <path id="Path_67" data-name="Path 67" d="M1396.962-39.65c-1.917,53.491-27.26,100.031-63.388,139.1a265.783,265.783,0,0,1-20.109,19.594c-47.856,42.02-112.5,71.8-175.719,99.888-45.768,20.424-92.279,42.221-131.181,73.457a278.7,278.7,0,0,0-42.392,41.963C920.35,388.191,912.8,447.746,909.48,508.417c-2.2,40.762-2.66,82.181-11.27,123.773a352.416,352.416,0,0,1-41.248,107.868c-30.121,51.117-72,95.4-125.088,118.138-42.449,18.164-89.333,21.282-134.614,32.152A552.9,552.9,0,0,0,419.253,969.01c-18.107,12.186-36.242,26.374-45.453,46.111" transform="translate(-333.704 517.578)" fill="none" stroke="#fff" stroke-width="0.59"/>
      <path id="Path_68" data-name="Path 68" d="M1385.416-43.06c-.486,52.976-23.8,99.258-58.3,138.876a249.2,249.2,0,0,1-19.365,19.937c-46.368,42.878-111.015,73.886-174.374,102.262-46,20.681-92.851,42.449-131.953,73.886a276.878,276.878,0,0,0-42.535,42.335c-43.737,54.12-51.374,114.219-54.406,175.261-2.031,41.048-2.174,82.668-10.269,124.459a360.453,360.453,0,0,1-39.36,108.669c-28.977,51.66-69.366,97.027-121.684,120.6-41.448,18.679-87.645,21.968-132.211,33.038a559.559,559.559,0,0,0-175.719,78.777c-17.935,12.1-35.87,26.145-45.081,45.625" transform="translate(-340.35 511.234)" fill="none" stroke="#fff" stroke-width="0.68"/>
      <path id="Path_69" data-name="Path 69" d="M1373.944-46.47c.973,52.432-20.338,98.515-53.2,138.647a242.366,242.366,0,0,1-18.593,20.281c-44.881,43.737-109.5,76-173.059,104.607-46.225,20.91-93.423,42.65-132.754,74.344a277.473,277.473,0,0,0-42.678,42.678c-43.68,54.378-51.374,115.02-54.149,176.463-1.859,41.305-1.688,83.154-9.268,125.146a370.733,370.733,0,0,1-37.472,109.5c-27.861,52.175-66.735,98.629-118.28,123.029C694.01,887.388,648.5,890.85,604.677,902.148a565.65,565.65,0,0,0-173.43,78.892c-17.735,12.014-35.5,25.916-44.738,45.167" transform="translate(-347.07 504.889)" fill="none" stroke="#fff" stroke-width="0.77"/>
      <path id="Path_70" data-name="Path 70" d="M1362.375-49.88c2.431,51.918-16.877,97.742-48.113,138.447a227.43,227.43,0,0,1-17.849,20.624c-43.393,44.595-108.011,78.091-171.714,106.953-46.426,21.139-94,42.85-133.527,74.8A273.3,273.3,0,0,0,948.35,334c-43.594,54.664-51.374,115.849-53.891,177.664-1.688,41.563-1.2,83.64-8.267,125.861a380.541,380.541,0,0,1-35.584,110.3c-26.717,52.69-64.075,100.2-114.876,125.489-39.474,19.651-84.3,23.284-127.405,34.841a572.727,572.727,0,0,0-171.142,79.006c-17.535,11.9-35.127,25.687-44.366,44.681" transform="translate(-353.723 498.545)" fill="none" stroke="#fff" stroke-width="0.86"/>
      <path id="Path_71" data-name="Path 71" d="M1350.74-53.29c3.89,51.4-13.444,97-43.05,138.218a217.1,217.1,0,0,1-17.077,20.967c-41.935,45.453-106.524,80.208-170.37,109.327-46.654,21.4-94.6,43.079-134.3,75.23a275.184,275.184,0,0,0-42.964,43.393c-43.422,55.035-51.374,116.679-53.634,178.865-1.516,41.849-.829,84.127-7.266,126.547-5.978,39.331-17.306,76.947-33.7,111.1-25.6,53.2-61.414,101.776-111.473,127.949-38.473,20.109-82.668,23.856-125,35.727a576.956,576.956,0,0,0-168.854,79.121c-17.334,11.814-34.755,25.458-43.994,44.223" transform="translate(-360.28 492.201)" fill="none" stroke="#fff" stroke-width="0.95"/>
      <path id="Path_72" data-name="Path 72" d="M1339.138-56.7c5.349,50.859-9.983,96.255-37.958,137.989a203.622,203.622,0,0,1-16.333,21.311c-40.447,46.311-105.008,82.3-169.054,111.673-46.854,21.625-95.168,43.279-135.1,75.688A275.822,275.822,0,0,0,937.585,333.7c-43.336,55.322-51.374,117.48-53.376,180.067-1.316,42.106-.343,84.613-6.264,127.234-5.492,39.56-16.133,77.433-31.808,111.93-24.457,53.72-58.726,103.349-108.04,130.409-37.472,20.567-80.98,24.514-122.628,36.614A585.4,585.4,0,0,0,448.9,999.158c-17.163,11.728-34.383,25.229-43.651,43.737" transform="translate(-366.9 485.857)" fill="none" stroke="#fff" stroke-width="1.04"/>
      <path id="Path_73" data-name="Path 73" d="M1327.345-60.11c6.808,50.344-6.522,95.483-32.867,137.76A198.36,198.36,0,0,1,1278.917,99.3c-38.959,47.169-103.521,84.413-167.709,114.047-47.083,21.883-95.74,43.508-135.872,76.146a271.93,271.93,0,0,0-43.25,44.108c-43.25,55.608-51.374,118.309-53.119,181.268-1.144,42.392.143,85.1-5.263,127.92-5.006,39.761-14.989,77.891-29.921,112.731C820.44,809.76,787.745,860.419,739.146,888.394c-36.471,21-79.321,25.172-120.226,37.529a594.5,594.5,0,0,0-164.277,79.321c-16.962,11.642-34.011,25-43.279,43.25" transform="translate(-373.299 479.512)" fill="none" stroke="#fff" stroke-width="1.13"/>
      <path id="Path_74" data-name="Path 74" d="M1315.51-63.52c8.238,49.8-3.061,94.739-27.775,137.56a189.9,189.9,0,0,1-14.817,22c-37.472,48.027-102.033,86.5-166.394,116.393-47.312,22.111-96.312,43.708-136.673,76.575a271.255,271.255,0,0,0-43.365,44.452c-43.193,55.894-51.374,119.11-52.833,182.47-.973,42.65.6,85.585-4.262,128.635-4.52,39.989-13.816,78.377-28.033,113.532-22.2,54.749-53.348,106.41-101.232,135.329-35.47,21.4-77.633,25.859-117.823,38.416a605.045,605.045,0,0,0-161.989,79.435c-16.762,11.528-33.639,24.772-42.907,42.793" transform="translate(-379.657 473.168)" fill="none" stroke="#fff" stroke-width="1.22"/>
      <path id="Path_75" data-name="Path 75" d="M1303.635-66.92c9.7,49.286.372,94-22.684,137.331a179.629,179.629,0,0,1-14.045,22.34c-35.985,48.885-100.546,88.617-165.049,118.767-47.512,22.369-96.884,43.937-137.446,77.033A268.75,268.75,0,0,0,920.9,333.375c-43.107,56.151-51.374,119.94-52.575,183.671-.8,42.907,1.087,86.072-3.261,129.322-4.033,40.218-12.643,78.835-26.145,114.333-21.053,55.293-50.63,107.926-97.828,137.76-34.44,21.8-75.974,26.517-115.42,39.331a616.966,616.966,0,0,0-159.729,79.55c-16.562,11.442-33.267,24.543-42.564,42.306" transform="translate(-386.003 466.843)" fill="none" stroke="#fff" stroke-width="1.31"/>
      <path id="Path_76" data-name="Path 76" d="M1291.663-70.33c11.156,48.771,3.833,93.251-17.592,137.1a169.448,169.448,0,0,1-13.3,22.684c-34.5,49.744-99.03,90.706-163.705,121.112-47.741,22.6-97.485,44.137-138.218,77.49A268.363,268.363,0,0,0,915.2,333.225c-43.021,56.437-51.374,120.741-52.318,184.872-.629,43.193,1.545,86.558-2.26,130.008-3.547,40.447-11.5,79.321-24.257,115.163-19.937,55.808-47.942,109.413-94.424,140.22-33.439,22.169-74.315,27.174-113.046,40.218a630.011,630.011,0,0,0-157.44,79.636c-16.39,11.356-32.9,24.314-42.192,41.849" transform="translate(-392.224 460.498)" fill="none" stroke="#fff" stroke-width="1.4"/>
      <path id="Path_77" data-name="Path 77" d="M1279.641-73.74c12.615,48.228,7.294,92.536-12.5,136.9a160.177,160.177,0,0,1-12.558,23.027c-33.01,50.6-97.542,92.822-162.389,123.458-47.97,22.827-98.057,44.337-139.019,77.919a269.078,269.078,0,0,0-43.794,45.51c-42.936,56.723-51.374,121.57-52.061,186.074-.429,43.451,2.031,87.044-1.259,130.695-3.061,40.676-10.326,79.779-22.369,115.964-18.793,56.323-45.224,110.9-91.02,142.68-32.438,22.541-72.628,27.832-110.643,41.1a644.237,644.237,0,0,0-155.152,79.75c-16.19,11.27-32.524,24.114-41.82,41.362" transform="translate(-398.423 454.154)" fill="none" stroke="#fff" stroke-width="1.49"/>
      <path id="Path_78" data-name="Path 78" d="M1267.429-77.15c14.073,47.713,10.755,91.793-7.437,136.673a154.285,154.285,0,0,1-11.785,23.37c-31.522,51.46-96.055,94.91-161.045,125.832-48.17,23.084-98.629,44.566-139.791,78.377a265.721,265.721,0,0,0-43.937,45.882c-42.878,57.009-51.374,122.4-51.8,187.275-.257,43.737,2.517,87.559-.257,131.41-2.575,40.876-9.182,80.265-20.481,116.764-17.678,56.838-42.478,112.331-87.588,145.14-31.465,22.855-70.968,28.49-108.24,42.02A660.236,660.236,0,0,0,482.2,1035.459c-15.99,11.184-32.123,23.885-41.448,40.9" transform="translate(-404.404 447.81)" fill="none" stroke="#fff" stroke-width="1.58"/>
      <path id="Path_79" data-name="Path 79" d="M1255.214-80.56c15.532,47.169,14.217,91.049-2.346,136.445A150.39,150.39,0,0,1,1241.828,79.6c-30.035,52.318-94.567,97.027-159.7,128.178-48.4,23.313-99.2,44.766-140.592,78.835a265.444,265.444,0,0,0-44.08,46.225c-42.793,57.3-51.374,123.2-51.546,188.477-.086,43.994,2.975,88.045.744,132.1-2.088,41.1-8.009,80.723-18.593,117.565-16.534,57.352-39.761,113.761-84.184,147.6-30.464,23.2-69.309,29.148-105.838,42.907a678.891,678.891,0,0,0-150.575,79.979c-15.819,11.07-31.751,23.656-41.1,40.418" transform="translate(-410.41 441.466)" fill="none" stroke="#fff" stroke-width="1.67"/>
      <path id="Path_80" data-name="Path 80" d="M1242.806-83.97c16.963,46.654,17.678,90.334,2.746,136.244a145.488,145.488,0,0,1-10.269,24.057c-28.547,53.176-93.051,99.115-158.384,130.552-48.628,23.57-99.773,45-141.365,79.264a264.967,264.967,0,0,0-44.194,46.568c-42.707,57.581-51.374,124.03-51.26,189.678.086,44.251,3.461,88.532,1.745,132.783-1.6,41.334-6.865,81.209-16.705,118.4-15.389,57.867-37.043,115.191-80.78,150.06-29.463,23.484-67.622,29.806-103.463,43.822a699.378,699.378,0,0,0-148.287,80.093c-15.618,10.984-31.379,23.427-40.733,39.932" transform="translate(-416.194 435.122)" fill="none" stroke="#fff" stroke-width="1.76"/>
      <path id="Path_81" data-name="Path 81" d="M1230.313-87.38c18.421,46.139,21.167,89.619,7.838,136.015a138.942,138.942,0,0,1-9.525,24.4c-27.089,54.034-91.564,101.232-157.04,132.9-48.828,23.8-100.345,45.2-142.137,79.721a262.885,262.885,0,0,0-44.337,46.94c-42.65,57.839-51.374,124.831-51,190.879.258,44.538,3.919,89.018,2.746,133.5-1.116,41.563-5.692,81.667-14.817,119.2-14.274,58.382-34.326,116.564-77.376,152.52C716.172,952.459,678.7,959.181,643.6,973.4a723.273,723.273,0,0,0-146,80.179c-15.418,10.9-31.008,23.2-40.361,39.474" transform="translate(-421.894 428.777)" fill="none" stroke="#fff" stroke-width="1.85"/>
      <path id="Path_82" data-name="Path 82" d="M1217.759-90.79c19.88,45.6,24.629,88.875,12.929,135.787a135.082,135.082,0,0,1-8.753,24.743c-25.6,54.892-90.076,103.32-155.7,135.272-49.057,24.057-100.946,45.424-142.938,80.179a261.741,261.741,0,0,0-44.48,47.284c-42.564,58.125-51.374,125.661-50.745,192.081.429,44.795,4.405,89.5,3.747,134.185-.6,41.792-4.548,82.153-12.929,120-13.13,58.926-31.58,117.937-73.972,154.952-27.518,24.028-64.275,31.151-98.658,45.6a750.034,750.034,0,0,0-143.71,80.294c-15.218,10.813-30.636,22.97-40.018,38.988" transform="translate(-427.561 422.433)" fill="none" stroke="#fff" stroke-width="1.94"/>
      <path id="Path_83" data-name="Path 83" d="M1205.057-94.2c21.339,45.081,28.118,88.16,18.021,135.586a129.11,129.11,0,0,1-8.009,25.086c-24.114,55.751-88.56,105.437-154.38,137.617-49.257,24.285-101.518,45.625-143.71,80.608a260.751,260.751,0,0,0-44.623,47.655c-42.478,58.411-51.374,126.49-50.487,193.282.629,45.052,4.891,89.991,4.748,134.871-.114,42.02-3.375,82.61-11.041,120.8-12.014,59.441-28.862,119.282-70.539,157.412-26.545,24.285-62.616,31.808-96.255,46.511a781.826,781.826,0,0,0-141.422,80.408c-15.046,10.7-30.264,22.741-39.646,38.531" transform="translate(-433.052 416.089)" fill="none" stroke="#fff" stroke-width="2.03"/>
      <path id="Path_84" data-name="Path 84" d="M1192.326-97.61c22.8,44.538,31.58,87.416,23.113,135.358a127.58,127.58,0,0,1-7.237,25.43c-22.626,56.609-87.073,107.525-153.035,139.963-49.486,24.543-102.09,45.853-144.511,81.066a260.617,260.617,0,0,0-44.766,48c-42.421,58.7-51.374,127.291-50.23,194.484.8,45.339,5.378,90.505,5.75,135.558.372,42.249-2.231,83.1-9.182,121.627-10.87,59.956-26.173,120.6-67.135,159.872-25.573,24.514-60.957,32.466-93.881,47.4a817.78,817.78,0,0,0-139.133,80.522c-14.846,10.612-29.892,22.512-39.274,38.044" transform="translate(-438.542 409.745)" fill="none" stroke="#fff" stroke-width="2.12"/>
      <path id="Path_85" data-name="Path 85" d="M1179.482-101.02c24.257,44.023,35.069,86.7,28.2,135.129a123.8,123.8,0,0,1-6.493,25.773c-21.139,57.467-85.585,109.642-151.719,142.337-49.715,24.772-102.662,46.054-145.283,81.495a260.5,260.5,0,0,0-44.909,48.342c-42.335,58.954-51.374,128.121-49.972,195.685.973,45.6,5.835,90.992,6.751,136.273.858,42.449-1.058,83.583-7.294,122.428-9.726,60.47-23.456,121.885-63.731,162.332-24.629,24.743-59.269,33.124-91.478,48.313a861.17,861.17,0,0,0-136.845,80.637c-14.646,10.526-29.52,22.283-38.931,37.587" transform="translate(-443.891 403.401)" fill="none" stroke="#fff" stroke-width="2.21"/>
      <path id="Path_86" data-name="Path 86" d="M1166.494-104.43c25.687,43.508,38.559,85.986,33.267,134.928a121.247,121.247,0,0,1-5.721,26.116c-19.651,58.325-84.1,111.73-150.375,144.683-49.915,25-103.235,46.254-146.056,81.953a258.722,258.722,0,0,0-45.052,48.714c-42.278,59.24-51.374,128.921-49.715,196.886,1.144,45.882,6.322,91.478,7.752,136.959,1.344,42.678.086,84.041-5.406,123.229-8.61,60.985-20.767,123.172-60.327,164.792-23.685,24.943-57.61,33.811-89.075,49.2a913.516,913.516,0,0,0-134.556,80.723c-14.445,10.441-29.148,22.054-38.559,37.1" transform="translate(-449.095 397.056)" fill="none" stroke="#fff" stroke-width="2.3"/>
      <path id="Path_87" data-name="Path 87" d="M1153.4-107.84c27.146,42.964,42.02,85.271,38.359,134.7a117.628,117.628,0,0,1-4.977,26.459c-18.164,59.183-82.582,113.847-149.031,147.057-50.144,25.258-103.835,46.483-146.857,82.41a257.573,257.573,0,0,0-45.167,49.057c-42.192,59.526-51.374,129.751-49.429,198.088,1.316,46.139,6.808,91.964,8.753,137.646,1.831,42.907,1.259,84.527-3.518,124.03-7.466,61.5-18.107,124.4-56.923,167.252-22.769,25.115-55.951,34.469-86.672,50.087a975.818,975.818,0,0,0-132.268,80.837c-14.274,10.355-28.776,21.825-38.187,36.643" transform="translate(-454.219 390.712)" fill="none" stroke="#fff" stroke-width="2.39"/>
      <path id="Path_88" data-name="Path 88" d="M1140.288-111.25c28.6,42.449,45.51,84.527,43.451,134.471a116.494,116.494,0,0,1-4.2,26.8c-16.677,60.041-81.094,115.935-147.715,149.4-50.373,25.487-104.407,46.683-147.629,82.839a256.769,256.769,0,0,0-45.31,49.429c-42.135,59.784-51.374,130.581-49.172,199.289,1.488,46.4,7.294,92.45,9.754,138.361,2.346,43.136,2.4,84.985-1.63,124.86-6.35,62.015-15.447,125.632-53.52,169.683-21.854,25.287-54.263,35.127-84.3,51a1050.093,1050.093,0,0,0-129.98,80.951c-14.073,10.24-28.4,21.6-37.844,36.156" transform="translate(-459.303 384.368)" fill="none" stroke="#fff" stroke-width="2.48"/>
      <path id="Path_89" data-name="Path 89" d="M1127.028-114.66c30.063,41.906,49.029,83.812,48.542,134.271a115.205,115.205,0,0,1-3.461,27.146c-15.189,60.9-79.607,118.052-146.37,151.777-50.573,25.744-104.979,46.912-148.43,83.3A256.754,256.754,0,0,0,831.855,331.6c-42.049,60.07-51.374,131.382-48.914,200.491,1.688,46.683,7.752,92.937,10.784,139.048,2.832,43.365,3.576,85.471.258,125.661-5.206,62.559-12.815,126.862-50.087,172.143-20.939,25.43-52.6,35.813-81.9,51.889A1145.11,1145.11,0,0,0,534.309,1101.9c-13.873,10.155-28.032,21.368-37.472,35.67" transform="translate(-464.264 378.024)" fill="none" stroke="#fff" stroke-width="2.57"/>
      <path id="Path_90" data-name="Path 90" d="M1113.723-118.07c31.522,41.391,52.518,83.1,53.634,134.042a112.95,112.95,0,0,1-2.717,27.489c-13.73,61.758-78.091,120.14-145.026,154.122-50.8,25.973-105.552,47.112-149.2,83.755a255.04,255.04,0,0,0-45.6,50.115c-41.992,60.356-51.346,132.211-48.657,201.692,1.859,46.94,8.238,93.452,11.785,139.734,3.318,43.594,4.72,85.929,2.145,126.461-4.062,63.073-10.183,128.035-46.683,174.6-20.052,25.573-50.945,36.471-79.492,52.8-39.989,22.855-82.811,49.629-125.4,81.18-13.7,10.069-27.661,21.139-37.1,35.212" transform="translate(-469.152 371.68)" fill="none" stroke="#fff" stroke-width="2.66"/>
      <path id="Path_91" data-name="Path 91" d="M1100.417-121.48c32.981,40.876,56.008,82.353,58.726,133.813a112.314,112.314,0,0,1-1.945,27.832c-12.243,62.616-76.6,122.257-143.71,156.468-51.031,26.231-106.123,47.341-149.975,84.184A255.233,255.233,0,0,0,817.773,331.3c-41.906,60.613-51.345,133.012-48.4,202.893,2.031,47.226,8.724,93.938,12.786,140.421,3.8,43.794,5.893,86.415,4.033,127.262-2.946,63.588-7.609,129.208-43.279,177.063-19.165,25.716-49.257,37.129-77.09,53.691-39.017,23.2-81.037,49.973-123.115,81.266-13.5,9.983-27.289,20.91-36.757,34.726" transform="translate(-474.067 365.335)" fill="none" stroke="#fff" stroke-width="2.75"/>
      <path id="Path_92" data-name="Path 92" d="M1087.066-124.89c34.411,40.333,59.5,81.638,63.817,133.613a110.713,110.713,0,0,1-1.2,28.176c-10.755,63.445-75.116,124.345-142.366,158.842-51.231,26.459-106.7,47.541-150.776,84.641a255.261,255.261,0,0,0-45.882,50.831c-41.849,60.9-51.345,133.841-48.142,204.095,2.2,47.484,9.211,94.424,13.788,141.136,4.319,44.023,7.037,86.873,5.921,128.092-1.8,64.1-5.034,130.352-39.875,179.523-18.307,25.83-47.6,37.815-74.687,54.578-38.044,23.542-79.292,50.316-120.826,81.38-13.3,9.869-26.917,20.71-36.385,34.268" transform="translate(-478.909 358.991)" fill="none" stroke="#fff" stroke-width="2.84"/>
      <path id="Path_93" data-name="Path 93" d="M1073.626-128.3c35.87,39.818,63.016,80.894,68.909,133.384a110.658,110.658,0,0,1-.429,28.519c-9.268,64.3-73.629,126.461-141.021,161.188-51.46,26.688-107.3,47.741-151.548,85.1a254.459,254.459,0,0,0-46.025,51.174c-41.763,61.185-51.345,134.642-47.856,205.3,2.374,47.741,9.7,94.91,14.789,141.822,4.806,44.252,8.21,87.359,7.809,128.893-.687,64.618-2.517,131.5-36.471,181.983-17.449,25.945-45.911,38.473-72.313,55.493-37.072,23.885-77.519,50.659-118.538,81.495-13.1,9.783-26.517,20.481-36.013,33.782" transform="translate(-483.662 352.647)" fill="none" stroke="#fff" stroke-width="2.93"/>
      <path id="Path_94" data-name="Path 94" d="M1060.269-131.71c37.329,39.274,66.506,80.179,73.972,133.155a110.823,110.823,0,0,1,.315,28.862c-7.781,65.162-72.113,128.55-139.706,163.562C943.19,220.815,886.981,241.839,842.5,279.4a253.782,253.782,0,0,0-46.139,51.546c-41.706,61.443-51.345,135.472-47.6,206.5,2.546,48.027,10.183,95.4,15.79,142.509,5.292,44.48,9.382,87.816,9.7,129.694.458,65.133,0,132.612-33.038,184.443-16.619,26.059-44.251,39.16-69.91,56.38-36.1,24.257-75.774,51-116.249,81.609-12.929,9.7-26.145,20.252-35.67,33.325" transform="translate(-488.526 346.303)" fill="none" stroke="#fff" stroke-width="3.02"/>
      <path id="Path_95" data-name="Path 95" d="M1046.772-135.12c38.788,38.759,70.024,79.435,79.063,132.955a109.979,109.979,0,0,1,1.087,29.205c-6.293,66.02-70.625,130.666-138.361,165.907-51.889,27.174-108.44,48.17-153.121,85.986a253.027,253.027,0,0,0-46.282,51.889c-41.62,61.729-51.346,136.3-47.341,207.7,2.746,48.285,10.641,95.883,16.791,143.2,5.807,44.709,10.526,88.3,11.585,130.523,1.573,65.676,2.46,133.727-29.634,186.875-15.79,26.145-42.593,39.818-67.507,57.3-35.127,24.6-74,51.345-113.961,81.724-12.729,9.611-25.773,20.023-35.3,32.838" transform="translate(-493.221 339.958)" fill="none" stroke="#fff" stroke-width="3.11"/>
      <path id="Path_96" data-name="Path 96" d="M1033.353-138.53c40.247,38.245,73.514,78.72,84.155,132.726a109.37,109.37,0,0,1,1.831,29.549C1114.533,90.622,1050.2,156.5,982.294,192.026c-52.118,27.432-109.013,48.4-153.893,86.443a252.557,252.557,0,0,0-46.425,52.261c-41.563,61.986-51.345,137.1-47.083,208.9,2.918,48.542,11.127,96.369,17.792,143.91,6.293,44.938,11.7,88.76,13.473,131.324,2.718,66.191,4.92,134.814-26.23,189.335-14.989,26.259-40.9,40.476-65.1,58.182-34.154,24.943-72.256,51.689-111.7,81.809-12.529,9.525-25.4,19.795-34.927,32.352" transform="translate(-498.023 333.614)" fill="none" stroke="#fff" stroke-width="3.2"/>
      <path id="Path_97" data-name="Path 97" d="M1019.87-141.94c41.706,37.7,77.033,77.977,89.247,132.5a110.2,110.2,0,0,1,2.6,29.892c-3.318,67.736-67.65,134.871-135.7,170.627-52.318,27.661-109.585,48.6-154.694,86.873a251.878,251.878,0,0,0-46.569,52.6c-41.505,62.272-51.345,137.932-46.826,210.1,3.089,48.828,11.614,96.856,18.793,144.6,6.779,45.138,12.844,89.247,15.361,132.125,3.862,66.706,7.294,135.872-22.827,191.795-14.188,26.345-39.246,41.162-62.73,59.069-33.181,25.315-70.482,52.032-109.413,81.924-12.329,9.411-25.029,19.566-34.554,31.894" transform="translate(-502.733 327.27)" fill="none" stroke="#fff" stroke-width="3.29"/>
      <path id="Path_98" data-name="Path 98" d="M1006.373-145.35c43.136,37.186,80.551,77.233,94.338,132.268a109.872,109.872,0,0,1,3.347,30.235c-1.831,68.594-66.134,136.959-134.356,172.973-52.547,27.918-110.185,48.828-155.467,87.33A252.024,252.024,0,0,0,767.524,330.4c-41.42,62.559-51.346,138.733-46.569,211.3,3.261,49.086,12.1,97.37,19.794,145.283,7.294,45.367,14.016,89.7,17.249,132.926,4.977,67.221,9.668,136.959-19.423,194.255-13.416,26.431-37.558,41.82-60.327,59.984-32.18,25.658-68.737,52.375-107.125,82.038-12.157,9.325-24.657,19.337-34.211,31.408" transform="translate(-507.429 320.926)" fill="none" stroke="#fff" stroke-width="3.38"/>
      <path id="Path_99" data-name="Path 99" d="M992.832-148.76c44.595,36.643,84.041,76.489,99.43,132.068a112.166,112.166,0,0,1,4.119,30.578c-.372,69.452-64.647,139.076-133.041,175.347-52.776,28.147-110.757,49.028-156.268,87.788a250.824,250.824,0,0,0-46.854,53.319c-41.363,62.816-51.346,139.562-46.282,212.5,3.433,49.372,12.586,97.857,20.8,146,7.78,45.6,15.161,90.191,19.137,133.756,6.121,67.736,11.985,138.018-16.019,196.715-12.643,26.545-35.9,42.506-57.925,60.871-31.208,26.03-66.992,52.718-104.836,82.153-11.957,9.239-24.285,19.108-33.839,30.95" transform="translate(-512.109 314.582)" fill="none" stroke="#fff" stroke-width="3.47"/>
      <path id="Path_100" data-name="Path 100" d="M979.241-152.17c46.054,36.128,87.559,75.774,104.522,131.839a112.232,112.232,0,0,1,4.863,30.922c1.116,70.31-63.159,141.164-131.7,177.693-52.976,28.376-111.33,49.229-157.04,88.217a251.013,251.013,0,0,0-47,53.662c-41.305,63.1-51.345,140.392-46.025,213.706,3.633,49.629,13.072,98.343,21.8,146.685C736.93,736.379,745,781.2,749.688,825.11c7.237,68.251,14.274,139.076-12.586,199.175-11.9,26.631-34.211,43.193-55.522,61.758-30.235,26.374-65.219,53.062-102.548,82.267-11.757,9.154-23.914,18.879-33.468,30.464" transform="translate(-516.71 308.237)" fill="none" stroke="#fff" stroke-width="3.56"/>
      <path id="Path_101" data-name="Path 101" d="M965.7-155.58c47.512,35.613,91.078,75.03,109.585,131.61A113.578,113.578,0,0,1,1080.92,7.3c2.6,71.169-61.643,143.281-130.352,180.067-53.2,28.633-111.9,49.458-157.812,88.675a248.982,248.982,0,0,0-47.112,54.034C704.425,393.43,694.3,471.264,699.877,544.978c3.8,49.887,13.559,98.829,22.8,147.372,8.782,46.054,17.477,91.135,22.912,135.358,8.381,68.766,16.505,140.135-9.182,201.606-11.184,26.717-32.552,43.851-53.148,62.673-29.263,26.717-63.474,53.405-100.259,82.353-11.585,9.039-23.542,18.65-33.125,30.006" transform="translate(-521.391 301.893)" fill="none" stroke="#fff" stroke-width="3.65"/>
      <path id="Path_102" data-name="Path 102" d="M952.161-158.99c48.971,35.069,94.6,74.286,114.676,131.41a113.13,113.13,0,0,1,6.379,31.608c4.09,72.027-60.156,145.369-129.036,182.412C890.776,215.3,831.707,236.1,785.567,275.573a249.864,249.864,0,0,0-47.255,54.378C697.15,393.6,686.967,471.973,692.8,546.059c3.976,50.173,14.131,99.287,23.8,148.058,9.354,46.254,18.65,91.592,24.8,136.159,9.525,69.309,18.707,141.193-5.778,204.066-10.441,26.831-30.865,44.538-50.745,63.56-28.29,27.089-61.7,53.72-97.971,82.467-11.385,8.953-23.17,18.421-32.752,29.52" transform="translate(-526.044 295.549)" fill="none" stroke="#fff" stroke-width="3.74"/>
      <path id="Path_103" data-name="Path 103" d="M938.522-162.4c50.43,34.555,98.114,73.543,119.768,131.181A114.75,114.75,0,0,1,1065.441.733c5.578,72.885-58.668,147.486-127.692,184.786-53.634,29.12-113.046,49.887-159.386,89.561a247.916,247.916,0,0,0-47.4,54.721c-41.219,63.846-51.345,142.823-45.253,217.31,4.148,50.43,14.617,99.773,24.8,148.773,9.84,46.483,19.794,92.079,26.688,136.988,10.641,69.824,20.853,142.251-2.374,206.526-9.726,26.946-29.205,45.224-48.342,64.475-27.289,27.461-59.956,54.063-95.683,82.582-11.184,8.867-22.8,18.193-32.381,29.034" transform="translate(-530.626 289.205)" fill="none" stroke="#fff" stroke-width="3.83"/>
      <path id="Path_104" data-name="Path 104" d="M924.952-165.81c51.86,34.011,101.6,72.8,124.86,130.952a116.407,116.407,0,0,1,7.895,32.295c7.065,73.743-57.181,149.574-126.347,187.132-53.863,29.348-113.647,50.087-160.187,90.019a247.028,247.028,0,0,0-47.541,55.093c-41.162,64.1-51.345,143.653-45,218.512,4.319,50.688,15.075,100.288,25.8,149.46,10.355,46.683,20.967,92.536,28.576,137.789,11.785,70.339,22.97,143.31,1.03,208.986-9.039,27.06-27.518,45.882-45.939,65.362-26.316,27.8-58.182,54.406-93.395,82.7-10.984,8.782-22.426,17.964-32.037,28.576" transform="translate(-535.249 282.861)" fill="none" stroke="#fff" stroke-width="3.92"/>
      <path id="Path_105" data-name="Path 105" d="M911.369-169.22c53.319,33.5,105.122,72.027,129.951,130.752a117.173,117.173,0,0,1,8.639,32.638c8.553,74.6-55.665,151.691-125.031,189.478-54.063,29.606-114.219,50.316-160.959,90.477a247.186,247.186,0,0,0-47.684,55.436c-41.076,64.389-51.346,144.454-44.738,219.713,4.491,50.974,15.561,100.774,26.8,150.146,10.841,46.912,22.111,93.023,30.435,138.59,12.9,70.854,25.058,144.4,4.462,211.446-8.353,27.174-25.83,46.568-43.565,66.249-25.344,28.176-56.437,54.749-91.106,82.811-10.813,8.667-22.054,17.735-31.666,28.09" transform="translate(-539.859 276.516)" fill="none" stroke="#fff" stroke-width="4.01"/>
      <path id="Path_106" data-name="Path 106" d="M897.659-172.63C952.437-139.649,1006.3-101.347,1032.7-42.107a119.1,119.1,0,0,1,9.411,32.981c10.04,75.459-54.177,153.779-123.687,191.852-54.292,29.835-114.791,50.516-161.731,90.906a246.975,246.975,0,0,0-47.827,55.808c-40.991,64.675-51.345,145.283-44.452,220.914,4.691,51.231,16.047,101.261,27.8,150.833,11.328,47.141,23.284,93.48,32.323,139.391,14.045,71.369,27.089,145.484,7.866,213.906-7.666,27.289-24.171,47.255-41.162,67.164-24.343,28.519-54.664,55.093-88.818,82.9-10.612,8.581-21.682,17.506-31.293,27.632" transform="translate(-544.37 270.172)" fill="none" stroke="#fff" stroke-width="4.1"/>
      <path id="Path_107" data-name="Path 107" d="M884.051-176.04C940.288-143.6,996.21-105.5,1024.185-45.745a119.417,119.417,0,0,1,10.155,33.325c11.528,76.317-52.69,155.9-122.371,194.2-54.521,30.064-115.363,50.716-162.532,91.363A245.7,245.7,0,0,0,701.5,329.291C660.562,394.224,650.15,475.4,657.3,551.407c4.863,51.517,16.534,101.747,28.8,151.548,11.814,47.369,24.428,93.967,34.211,140.22,15.189,71.884,29.091,146.571,11.27,216.366-7.008,27.432-22.483,47.913-38.759,68.051-23.37,28.891-52.919,55.436-86.529,83.011-10.412,8.5-21.282,17.306-30.95,27.146" transform="translate(-548.954 263.828)" fill="none" stroke="#fff" stroke-width="4.19"/>
      <path id="Path_108" data-name="Path 108" d="M870.347-179.45c57.7,31.923,115.677,69.8,145.226,130.094A122.5,122.5,0,0,1,1026.5-15.688c12.986,77.176-51.174,157.984-121.027,196.572-54.721,30.321-115.935,50.945-163.3,91.821A246,246,0,0,0,694.084,329.2c-40.848,65.219-51.346,146.914-43.937,223.317,5.035,51.775,17.02,102.233,29.806,152.234,12.3,47.6,25.6,94.424,36.1,141.021,16.3,72.4,31.065,147.686,14.674,218.8-6.35,27.575-20.8,48.6-36.357,68.966-22.369,29.263-51.145,55.779-84.241,83.125-10.212,8.41-20.91,17.077-30.578,26.688" transform="translate(-553.471 257.484)" fill="none" stroke="#fff" stroke-width="4.28"/>
      <path id="Path_109" data-name="Path 109" d="M856.754-182.86c59.155,31.379,119.167,69.023,150.289,129.865a123.684,123.684,0,0,1,11.671,34.011c14.474,78.034-49.686,160.1-119.682,198.917-54.95,30.55-116.536,51.145-164.105,92.25A245.149,245.149,0,0,0,686.7,329.05c-40.79,65.5-51.345,147.743-43.679,224.518,5.206,52.032,17.477,102.72,30.807,152.921,12.815,47.8,26.745,94.911,37.987,141.822,17.449,72.942,32.981,148.8,18.078,221.258-5.692,27.747-19.108,49.286-33.982,69.853-21.368,29.606-49.4,56.122-81.953,83.24-10.04,8.324-20.538,16.848-30.207,26.2" transform="translate(-558.071 251.139)" fill="none" stroke="#fff" stroke-width="4.37"/>
      <path id="Path_110" data-name="Path 110" d="M843.044-186.27c60.585,30.864,122.686,68.279,155.381,129.637a125.978,125.978,0,0,1,12.443,34.354c15.962,78.892-48.2,162.189-118.366,201.291-55.178,30.807-117.108,51.374-164.878,92.708a245.467,245.467,0,0,0-48.37,57.209c-40.7,65.791-51.346,148.544-43.422,225.72,5.378,52.318,17.964,103.206,31.837,153.636,13.3,48.027,27.918,95.368,39.875,142.623,18.564,73.457,34.869,149.946,21.482,223.718-5.063,27.918-17.449,49.972-31.58,70.74-20.4,29.978-47.627,56.466-79.664,83.354-9.84,8.21-20.166,16.619-29.863,25.744" transform="translate(-562.554 244.795)" fill="none" stroke="#fff" stroke-width="4.46"/>
      <path id="Path_111" data-name="Path 111" d="M829.316-189.68c62.044,30.321,126.318,67.45,160.472,129.436a126.406,126.406,0,0,1,13.187,34.7c17.449,79.75-46.712,164.306-117.022,203.637-55.379,31.036-117.68,51.574-165.65,93.137a246.378,246.378,0,0,0-48.514,57.553c-40.647,66.048-51.346,149.374-43.165,226.921,5.549,52.576,18.45,103.692,32.838,154.322,13.787,48.256,29.091,95.854,41.763,143.453,19.709,73.972,36.729,151.09,24.915,226.178-4.434,28.09-15.761,50.63-29.177,71.655-19.394,30.35-45.882,56.809-77.376,83.44-9.64,8.124-19.794,16.391-29.491,25.258" transform="translate(-567.047 238.451)" fill="none" stroke="#fff" stroke-width="4.55"/>
      <path id="Path_112" data-name="Path 112" d="M815.557-193.09c63.5,29.806,129.808,66.706,165.564,129.208A128.86,128.86,0,0,1,995.08-28.842c18.936,80.608-45.2,166.394-115.677,205.983-55.608,31.294-118.252,51.8-166.451,93.595A245.013,245.013,0,0,0,664.3,328.66c-40.562,66.334-51.345,150.2-42.878,228.123,5.75,52.862,18.936,104.178,33.839,155.009,14.274,48.485,30.235,96.312,43.651,144.254,20.824,74.487,38.559,152.263,28.319,228.638-3.8,28.29-14.073,51.317-26.774,72.542-18.393,30.721-44.108,57.152-75.088,83.554-9.468,8.038-19.422,16.162-29.119,24.772" transform="translate(-571.481 232.107)" fill="none" stroke="#fff" stroke-width="4.64"/>
      <path id="Path_113" data-name="Path 113" d="M801.9-196.5c64.961,29.291,133.3,65.962,170.656,128.979a131.282,131.282,0,0,1,14.7,35.384c20.424,81.466-43.708,168.51-114.362,208.357-55.808,31.522-118.824,52-167.223,94.052a245.356,245.356,0,0,0-48.8,58.268c-40.5,66.62-51.345,151-42.621,229.324,5.921,53.119,19.394,104.693,34.841,155.7,14.76,48.714,31.408,96.8,45.539,145.055,21.968,75,40.39,153.464,31.723,231.1-3.175,28.49-12.386,52-24.371,73.457-17.392,31.065-42.364,57.5-72.8,83.669-9.268,7.952-19.051,15.933-28.776,24.314" transform="translate(-576.04 225.763)" fill="none" stroke="#fff" stroke-width="4.73"/>
      <path id="Path_114" data-name="Path 114" d="M788.568-199.91c66.42,28.748,136.788,65.219,175.747,128.778A133.865,133.865,0,0,1,979.79-35.4c21.911,82.324-42.221,170.6-113.017,210.7-56.037,31.78-119.425,52.232-168.024,94.481a244.386,244.386,0,0,0-48.914,58.64c-40.419,66.878-51.346,151.834-42.364,230.525,6.093,53.376,19.88,105.18,35.842,156.411,15.275,48.914,32.552,97.256,47.427,145.855,23.113,75.516,42.163,154.666,35.127,233.529a193.816,193.816,0,0,1-22,74.344c-16.333,31.465-40.59,57.839-70.511,83.783-9.068,7.838-18.679,15.7-28.4,23.828" transform="translate(-580.905 219.418)" fill="none" stroke="#fff" stroke-width="4.82"/>
      <path id="Path_115" data-name="Path 115" d="M786.315-203.32c67.879,28.233,140.277,64.475,180.839,128.55A135.917,135.917,0,0,1,983.372-38.7c23.4,83.183-40.733,172.715-111.673,213.077-56.266,32.009-120,52.432-168.8,94.939A244.764,244.764,0,0,0,653.846,328.3C613.485,395.463,602.5,480.934,611.74,560.026c6.264,53.662,20.366,105.666,36.843,157.1,15.761,49.143,33.725,97.742,49.315,146.685,24.228,76.031,43.937,155.924,38.531,235.989-1.945,28.948-8.982,53.348-19.594,75.23-15.361,31.808-38.845,58.182-68.222,83.9-8.867,7.752-18.307,15.475-28.033,23.37" transform="translate(-596.873 213.074)" fill="none" stroke="#fff" stroke-width="4.91"/>
      <path id="Path_116" data-name="Path 116" d="M784.042-206.73C853.352-179.041,927.81-143,969.973-78.409c60.527,92.737-11.785,205.268-93.366,251.836-56.466,32.238-120.569,52.633-169.569,95.4-80.065,69.824-103.663,186.817-91.049,292.283s55.636,204.438,89.047,305.27c25.372,76.575,45.682,157.183,41.963,238.449-3.862,84.384-46.425,132.554-110.815,183.013" transform="translate(-612.794 206.73)" fill="none" stroke="#fff" stroke-width="5"/>
    </g>
  </g>
</svg>
