<svg width="16" height="16" viewBox="0 0 16 16" fill="none" xmlns="http://www.w3.org/2000/svg">
    <path d="M5.27789 3.33024C5.30126 3.15685 5.55201 3.15685 5.57538 3.33024C5.93657 6.00951 8.04396 8.11689 10.7232 8.47808C10.8966 8.50145 10.8966 8.7522 10.7232 8.77558C8.04396 9.13677 5.93657 11.2442 5.57538 13.9234C5.55201 14.0968 5.30126 14.0968 5.27789 13.9234C4.9167 11.2442 2.80931 9.13677 0.130042 8.77558C-0.0433472 8.7522 -0.0433473 8.50145 0.130042 8.47808C2.80931 8.11689 4.9167 6.00951 5.27789 3.33024Z"
          fill="#1A0027"/>
    <path d="M12.7119 0.0766835C12.7257 -0.0255611 12.8735 -0.0255612 12.8873 0.0766835C13.1003 1.65661 14.343 2.8993 15.9229 3.11229C16.0252 3.12607 16.0252 3.27393 15.9229 3.28771C14.343 3.5007 13.1003 4.74339 12.8873 6.32332C12.8735 6.42556 12.7257 6.42556 12.7119 6.32332C12.4989 4.74339 11.2562 3.5007 9.67629 3.28771C9.57405 3.27393 9.57405 3.12607 9.67629 3.11229C11.2562 2.8993 12.4989 1.65661 12.7119 0.0766835Z"
          fill="#1A0027"/>
    <path d="M13.8092 11.7845C13.8184 11.7164 13.917 11.7164 13.9262 11.7845C14.0682 12.8378 14.8966 13.6663 15.9499 13.8083C16.0181 13.8174 16.0181 13.916 15.9499 13.9252C14.8966 14.0672 14.0682 14.8957 13.9262 15.9489C13.917 16.0171 13.8184 16.0171 13.8092 15.9489C13.6672 14.8957 12.8388 14.0672 11.7855 13.9252C11.7173 13.916 11.7173 13.8174 11.7855 13.8083C12.8388 13.6663 13.6672 12.8378 13.8092 11.7845Z"
          fill="#1A0027"/>
</svg>
